<?xml version="1.0" encoding="UTF-8"?>
<svg width="125mm" height="54.075mm" version="1.1" viewBox="0 0 125 54.075" xmlns="http://www.w3.org/2000/svg" xmlns:cc="http://creativecommons.org/ns#" xmlns:dc="http://purl.org/dc/elements/1.1/" xmlns:rdf="http://www.w3.org/1999/02/22-rdf-syntax-ns#">
 <defs>
  <filter id="filter10014" x="-.032565" y="-.091247" width="1.0651" height="1.1825" color-interpolation-filters="sRGB">
   <feGaussianBlur stdDeviation="2.8189237"/>
  </filter>
 </defs>
 <metadata>
  <rdf:RDF>
   <cc:Work rdf:about="">
    <dc:format>image/svg+xml</dc:format>
    <dc:type rdf:resource="http://purl.org/dc/dcmitype/StillImage"/>
    <dc:title/>
   </cc:Work>
  </rdf:RDF>
 </metadata>
 <g transform="translate(-.41048 -.45544)">
  <g transform="translate(-39.494 -170.65)">
   <g transform="matrix(.33887 0 0 .26458 28.024 137.07)" style="isolation:isolate">
    <g id="Group">
     <path d="m74.857 258h292.35l30.612 7.653h-358.16z" fill="#ecbd79"/>
     <rect x="70.265" y="293.2" width="35.204" height="39.796" fill="#ba7d22"/>
     <rect x="70.265" y="293.2" width="35.204" height="15.306" fill="#a15718"/>
     <rect x="332" y="293.2" width="35.204" height="39.796" fill="#ba7d22"/>
     <rect x="332" y="293.2" width="35.204" height="15.306" fill="#a15718"/>
     <path d="m38.122 265.65h362.76c1.689 0 3.061 1.372 3.061 3.061v27.551c0 1.69-1.372 3.062-3.061 3.062h-362.76c-1.689 0-3.061-1.372-3.061-3.062v-27.551c0-1.689 1.372-3.061 3.061-3.061z" fill="#ba7d22"/>
    </g>
   </g>
   <g transform="matrix(.11729 0 0 .13229 126.7 69.444)" fill-rule="evenodd">
    <g transform="matrix(.89354 0 0 1.11 16.936 -107.66)" fill="#0a0">
     <g transform="matrix(.39653 0 0 .39653 121.39 470.94)">
      <path d="m-29.72 872.72-11.997-0.0824c0.02306-9.7779 0.99415-18.515 16.111-11.728z"/>
      <path d="m-29.334 872.92 5.7536-10.528c8.6013 4.6503 15.837 9.6429 2.7006 19.744z"/>
      <path d="m-29.387 872.95 5.3838 10.722c-8.7183 4.4271-16.941 7.5367-17.773-9.0134z"/>
     </g>
     <g transform="matrix(.39653 0 0 .39653 131.77 478.2)">
      <path d="m-29.72 872.72-11.997-0.0824c0.02306-9.7779 0.99415-18.515 16.111-11.728z"/>
      <path d="m-29.334 872.92 5.7536-10.528c8.6013 4.6503 15.837 9.6429 2.7006 19.744z"/>
      <path d="m-29.387 872.95 5.3838 10.722c-8.7183 4.4271-16.941 7.5367-17.773-9.0134z"/>
     </g>
     <g transform="matrix(.39653 0 0 .39653 140.42 465.05)">
      <path d="m-29.72 872.72-11.997-0.0824c0.02306-9.7779 0.99415-18.515 16.111-11.728z"/>
      <path d="m-29.334 872.92 5.7536-10.528c8.6013 4.6503 15.837 9.6429 2.7006 19.744z"/>
      <path d="m-29.387 872.95 5.3838 10.722c-8.7183 4.4271-16.941 7.5367-17.773-9.0134z"/>
     </g>
     <g transform="matrix(.39653 0 0 .39653 146.3 479.24)">
      <path d="m-29.72 872.72-11.997-0.0824c0.02306-9.7779 0.99415-18.515 16.111-11.728z"/>
      <path d="m-29.334 872.92 5.7536-10.528c8.6013 4.6503 15.837 9.6429 2.7006 19.744z"/>
      <path d="m-29.387 872.95 5.3838 10.722c-8.7183 4.4271-16.941 7.5367-17.773-9.0134z"/>
     </g>
     <g transform="matrix(.39653 0 0 .39653 126.58 489.62)">
      <path d="m-29.72 872.72-11.997-0.0824c0.02306-9.7779 0.99415-18.515 16.111-11.728z"/>
      <path d="m-29.334 872.92 5.7536-10.528c8.6013 4.6503 15.837 9.6429 2.7006 19.744z"/>
      <path d="m-29.387 872.95 5.3838 10.722c-8.7183 4.4271-16.941 7.5367-17.773-9.0134z"/>
     </g>
     <g transform="matrix(.39653 0 0 .39653 113.43 485.47)">
      <path d="m-29.72 872.72-11.997-0.0824c0.02306-9.7779 0.99415-18.515 16.111-11.728z"/>
      <path d="m-29.334 872.92 5.7536-10.528c8.6013 4.6503 15.837 9.6429 2.7006 19.744z"/>
      <path d="m-29.387 872.95 5.3838 10.722c-8.7183 4.4271-16.941 7.5367-17.773-9.0134z"/>
     </g>
     <g transform="matrix(.39653 0 0 .39653 115.44 500.25)">
      <path d="m-29.72 872.72-11.997-0.0824c0.02306-9.7779 0.99415-18.515 16.111-11.728z"/>
      <path d="m-29.334 872.92 5.7536-10.528c8.6013 4.6503 15.837 9.6429 2.7006 19.744z"/>
      <path d="m-29.387 872.95 5.3838 10.722c-8.7183 4.4271-16.941 7.5367-17.773-9.0134z"/>
     </g>
     <g transform="matrix(.39653 0 0 .39653 103.74 503.81)">
      <path d="m-29.72 872.72-11.997-0.0824c0.02306-9.7779 0.99415-18.515 16.111-11.728z"/>
      <path d="m-29.334 872.92 5.7536-10.528c8.6013 4.6503 15.837 9.6429 2.7006 19.744z"/>
      <path d="m-29.387 872.95 5.3838 10.722c-8.7183 4.4271-16.941 7.5367-17.773-9.0134z"/>
     </g>
     <g transform="matrix(.39653 0 0 .39653 90.933 509.69)">
      <path d="m-29.72 872.72-11.997-0.0824c0.02306-9.7779 0.99415-18.515 16.111-11.728z"/>
      <path d="m-29.334 872.92 5.7536-10.528c8.6013 4.6503 15.837 9.6429 2.7006 19.744z"/>
      <path d="m-29.387 872.95 5.3838 10.722c-8.7183 4.4271-16.941 7.5367-17.773-9.0134z"/>
     </g>
     <g transform="matrix(.39653 0 0 .39653 97.508 521.11)">
      <path d="m-29.72 872.72-11.997-0.0824c0.02306-9.7779 0.99415-18.515 16.111-11.728z"/>
      <path d="m-29.334 872.92 5.7536-10.528c8.6013 4.6503 15.837 9.6429 2.7006 19.744z"/>
      <path d="m-29.387 872.95 5.3838 10.722c-8.7183 4.4271-16.941 7.5367-17.773-9.0134z"/>
     </g>
     <g transform="matrix(-.33973 -.20449 .20449 -.33973 -91.704 1152.2)">
      <path d="m-29.72 872.72-11.997-0.0824c0.02306-9.7779 0.99415-18.515 16.111-11.728z"/>
      <path d="m-29.334 872.92 5.7536-10.528c8.6013 4.6503 15.837 9.6429 2.7006 19.744z"/>
      <path d="m-29.387 872.95 5.3838 10.722c-8.7183 4.4271-16.941 7.5367-17.773-9.0134z"/>
     </g>
     <g transform="matrix(.39653 0 0 .39653 122.77 511.08)">
      <path d="m-29.72 872.72-11.997-0.0824c0.02306-9.7779 0.99415-18.515 16.111-11.728z"/>
      <path d="m-29.334 872.92 5.7536-10.528c8.6013 4.6503 15.837 9.6429 2.7006 19.744z"/>
      <path d="m-29.387 872.95 5.3838 10.722c-8.7183 4.4271-16.941 7.5367-17.773-9.0134z"/>
     </g>
     <g transform="matrix(.39653 0 0 -.39653 134.55 1203.9)">
      <path d="m-29.72 872.72-11.997-0.0824c0.02306-9.7779 0.99415-18.515 16.111-11.728z"/>
      <path d="m-29.334 872.92 5.7536-10.528c8.6013 4.6503 15.837 9.6429 2.7006 19.744z"/>
      <path d="m-29.387 872.95 5.3838 10.722c-8.7183 4.4271-16.941 7.5367-17.773-9.0134z"/>
     </g>
     <g transform="matrix(.39653 0 0 .39653 146.64 505.2)">
      <path d="m-29.72 872.72-11.997-0.0824c0.02306-9.7779 0.99415-18.515 16.111-11.728z"/>
      <path d="m-29.334 872.92 5.7536-10.528c8.6013 4.6503 15.837 9.6429 2.7006 19.744z"/>
      <path d="m-29.387 872.95 5.3838 10.722c-8.7183 4.4271-16.941 7.5367-17.773-9.0134z"/>
     </g>
     <g transform="matrix(.39653 0 0 .39653 158.56 501.46)">
      <path d="m-29.72 872.72-11.997-0.0824c0.02306-9.7779 0.99415-18.515 16.111-11.728z"/>
      <path d="m-29.334 872.92 5.7536-10.528c8.6013 4.6503 15.837 9.6429 2.7006 19.744z"/>
      <path d="m-29.387 872.95 5.3838 10.722c-8.7183 4.4271-16.941 7.5367-17.773-9.0134z"/>
     </g>
     <g transform="matrix(.39653 0 0 .39653 160.89 486.96)">
      <path d="m-29.72 872.72-11.997-0.0824c0.02306-9.7779 0.99415-18.515 16.111-11.728z"/>
      <path d="m-29.334 872.92 5.7536-10.528c8.6013 4.6503 15.837 9.6429 2.7006 19.744z"/>
      <path d="m-29.387 872.95 5.3838 10.722c-8.7183 4.4271-16.941 7.5367-17.773-9.0134z"/>
     </g>
     <g transform="matrix(.39653 0 0 .39653 155.99 470.24)">
      <path d="m-29.72 872.72-11.997-0.0824c0.02306-9.7779 0.99415-18.515 16.111-11.728z"/>
      <path d="m-29.334 872.92 5.7536-10.528c8.6013 4.6503 15.837 9.6429 2.7006 19.744z"/>
      <path d="m-29.387 872.95 5.3838 10.722c-8.7183 4.4271-16.941 7.5367-17.773-9.0134z"/>
     </g>
     <g transform="matrix(.39653 0 0 .39653 149.76 453.98)">
      <path d="m-29.72 872.72-11.997-0.0824c0.02306-9.7779 0.99415-18.515 16.111-11.728z"/>
      <path d="m-29.334 872.92 5.7536-10.528c8.6013 4.6503 15.837 9.6429 2.7006 19.744z"/>
      <path d="m-29.387 872.95 5.3838 10.722c-8.7183 4.4271-16.941 7.5367-17.773-9.0134z"/>
     </g>
     <g transform="matrix(.39653 0 0 .39653 162.91 457.44)">
      <path d="m-29.72 872.72-11.997-0.0824c0.02306-9.7779 0.99415-18.515 16.111-11.728z"/>
      <path d="m-29.334 872.92 5.7536-10.528c8.6013 4.6503 15.837 9.6429 2.7006 19.744z"/>
      <path d="m-29.387 872.95 5.3838 10.722c-8.7183 4.4271-16.941 7.5367-17.773-9.0134z"/>
     </g>
     <g transform="matrix(.39653 0 0 .39653 168.1 469.9)">
      <path d="m-29.72 872.72-11.997-0.0824c0.02306-9.7779 0.99415-18.515 16.111-11.728z"/>
      <path d="m-29.334 872.92 5.7536-10.528c8.6013 4.6503 15.837 9.6429 2.7006 19.744z"/>
      <path d="m-29.387 872.95 5.3838 10.722c-8.7183 4.4271-16.941 7.5367-17.773-9.0134z"/>
     </g>
     <g transform="matrix(.39653 0 0 .39653 178.49 456.4)">
      <path d="m-29.72 872.72-11.997-0.0824c0.02306-9.7779 0.99415-18.515 16.111-11.728z"/>
      <path d="m-29.334 872.92 5.7536-10.528c8.6013 4.6503 15.837 9.6429 2.7006 19.744z"/>
      <path d="m-29.387 872.95 5.3838 10.722c-8.7183 4.4271-16.941 7.5367-17.773-9.0134z"/>
     </g>
     <g transform="matrix(.39653 0 0 .39653 181.6 468.17)">
      <path d="m-29.72 872.72-11.997-0.0824c0.02306-9.7779 0.99415-18.515 16.111-11.728z"/>
      <path d="m-29.334 872.92 5.7536-10.528c8.6013 4.6503 15.837 9.6429 2.7006 19.744z"/>
      <path d="m-29.387 872.95 5.3838 10.722c-8.7183 4.4271-16.941 7.5367-17.773-9.0134z"/>
     </g>
     <g transform="matrix(.39653 0 0 .39653 189.56 478.2)">
      <path d="m-29.72 872.72-11.997-0.0824c0.02306-9.7779 0.99415-18.515 16.111-11.728z"/>
      <path d="m-29.334 872.92 5.7536-10.528c8.6013 4.6503 15.837 9.6429 2.7006 19.744z"/>
      <path d="m-29.387 872.95 5.3838 10.722c-8.7183 4.4271-16.941 7.5367-17.773-9.0134z"/>
     </g>
     <g transform="matrix(.39653 0 0 .39653 202.36 479.24)">
      <path d="m-29.72 872.72-11.997-0.0824c0.02306-9.7779 0.99415-18.515 16.111-11.728z"/>
      <path d="m-29.334 872.92 5.7536-10.528c8.6013 4.6503 15.837 9.6429 2.7006 19.744z"/>
      <path d="m-29.387 872.95 5.3838 10.722c-8.7183 4.4271-16.941 7.5367-17.773-9.0134z"/>
     </g>
     <g transform="matrix(.39653 0 0 .39653 211.36 491.01)">
      <path d="m-29.72 872.72-11.997-0.0824c0.02306-9.7779 0.99415-18.515 16.111-11.728z"/>
      <path d="m-29.334 872.92 5.7536-10.528c8.6013 4.6503 15.837 9.6429 2.7006 19.744z"/>
      <path d="m-29.387 872.95 5.3838 10.722c-8.7183 4.4271-16.941 7.5367-17.773-9.0134z"/>
     </g>
     <g transform="matrix(.30295 -.25584 .25584 .30295 13.49 566.28)">
      <path d="m-29.72 872.72-11.997-0.0824c0.02306-9.7779 0.99415-18.515 16.111-11.728z"/>
      <path d="m-29.334 872.92 5.7536-10.528c8.6013 4.6503 15.837 9.6429 2.7006 19.744z"/>
      <path d="m-29.387 872.95 5.3838 10.722c-8.7183 4.4271-16.941 7.5367-17.773-9.0134z"/>
     </g>
     <g transform="matrix(.39653 0 0 .39653 249.77 496.89)">
      <path d="m-29.72 872.72-11.997-0.0824c0.02306-9.7779 0.99415-18.515 16.111-11.728z"/>
      <path d="m-29.334 872.92 5.7536-10.528c8.6013 4.6503 15.837 9.6429 2.7006 19.744z"/>
      <path d="m-29.387 872.95 5.3838 10.722c-8.7183 4.4271-16.941 7.5367-17.773-9.0134z"/>
     </g>
     <g transform="matrix(.28356 .27718 -.27718 .28356 502.77 605.6)">
      <path d="m-29.72 872.72-11.997-0.0824c0.02306-9.7779 0.99415-18.515 16.111-11.728z"/>
      <path d="m-29.334 872.92 5.7536-10.528c8.6013 4.6503 15.837 9.6429 2.7006 19.744z"/>
      <path d="m-29.387 872.95 5.3838 10.722c-8.7183 4.4271-16.941 7.5367-17.773-9.0134z"/>
     </g>
     <g transform="matrix(.39653 0 0 .39653 267.08 513.15)">
      <path d="m-29.72 872.72-11.997-0.0824c0.02306-9.7779 0.99415-18.515 16.111-11.728z"/>
      <path d="m-29.334 872.92 5.7536-10.528c8.6013 4.6503 15.837 9.6429 2.7006 19.744z"/>
      <path d="m-29.387 872.95 5.3838 10.722c-8.7183 4.4271-16.941 7.5367-17.773-9.0134z"/>
     </g>
     <g transform="matrix(.39653 0 0 .39653 267.42 525.27)">
      <path d="m-29.72 872.72-11.997-0.0824c0.02306-9.7779 0.99415-18.515 16.111-11.728z"/>
      <path d="m-29.334 872.92 5.7536-10.528c8.6013 4.6503 15.837 9.6429 2.7006 19.744z"/>
      <path d="m-29.387 872.95 5.3838 10.722c-8.7183 4.4271-16.941 7.5367-17.773-9.0134z"/>
     </g>
     <g transform="matrix(.39653 0 0 .39653 244.58 519.04)">
      <path d="m-29.72 872.72-11.997-0.0824c0.02306-9.7779 0.99415-18.515 16.111-11.728z"/>
      <path d="m-29.334 872.92 5.7536-10.528c8.6013 4.6503 15.837 9.6429 2.7006 19.744z"/>
      <path d="m-29.387 872.95 5.3838 10.722c-8.7183 4.4271-16.941 7.5367-17.773-9.0134z"/>
     </g>
     <g transform="matrix(.39653 0 0 .39653 217.19 538.05)">
      <path d="m-29.72 872.72-11.997-0.0824c0.02306-9.7779 0.99415-18.515 16.111-11.728z"/>
      <path d="m-29.334 872.92 5.7536-10.528c8.6013 4.6503 15.837 9.6429 2.7006 19.744z"/>
      <path d="m-29.387 872.95 5.3838 10.722c-8.7183 4.4271-16.941 7.5367-17.773-9.0134z"/>
     </g>
     <g transform="matrix(.39653 0 0 .39653 227.69 544.22)">
      <path d="m-29.72 872.72-11.997-0.0824c0.02306-9.7779 0.99415-18.515 16.111-11.728z"/>
      <path d="m-29.334 872.92 5.7536-10.528c8.6013 4.6503 15.837 9.6429 2.7006 19.744z"/>
      <path d="m-29.387 872.95 5.3838 10.722c-8.7183 4.4271-16.941 7.5367-17.773-9.0134z"/>
     </g>
     <g transform="matrix(-.39653 0 0 .39653 194.61 552.02)">
      <path d="m-29.72 872.72-11.997-0.0824c0.02306-9.7779 0.99415-18.515 16.111-11.728z"/>
      <path d="m-29.334 872.92 5.7536-10.528c8.6013 4.6503 15.837 9.6429 2.7006 19.744z"/>
      <path d="m-29.387 872.95 5.3838 10.722c-8.7183 4.4271-16.941 7.5367-17.773-9.0134z"/>
     </g>
     <g transform="matrix(.39653 0 0 .39653 193.32 563.24)">
      <path d="m-29.72 872.72-11.997-0.0824c0.02306-9.7779 0.99415-18.515 16.111-11.728z"/>
      <path d="m-29.334 872.92 5.7536-10.528c8.6013 4.6503 15.837 9.6429 2.7006 19.744z"/>
      <path d="m-29.387 872.95 5.3838 10.722c-8.7183 4.4271-16.941 7.5367-17.773-9.0134z"/>
     </g>
     <g transform="matrix(-.39653 0 0 .39653 183.02 545.59)">
      <path d="m-29.72 872.72-11.997-0.0824c0.02306-9.7779 0.99415-18.515 16.111-11.728z"/>
      <path d="m-29.334 872.92 5.7536-10.528c8.6013 4.6503 15.837 9.6429 2.7006 19.744z"/>
      <path d="m-29.387 872.95 5.3838 10.722c-8.7183 4.4271-16.941 7.5367-17.773-9.0134z"/>
     </g>
     <g transform="matrix(.39653 0 0 .39653 181.52 540.32)">
      <path d="m-29.72 872.72-11.997-0.0824c0.02306-9.7779 0.99415-18.515 16.111-11.728z"/>
      <path d="m-29.334 872.92 5.7536-10.528c8.6013 4.6503 15.837 9.6429 2.7006 19.744z"/>
      <path d="m-29.387 872.95 5.3838 10.722c-8.7183 4.4271-16.941 7.5367-17.773-9.0134z"/>
     </g>
     <g transform="matrix(.39653 0 0 .39653 206.33 531.82)">
      <path d="m-29.72 872.72-11.997-0.0824c0.02306-9.7779 0.99415-18.515 16.111-11.728z"/>
      <path d="m-29.334 872.92 5.7536-10.528c8.6013 4.6503 15.837 9.6429 2.7006 19.744z"/>
      <path d="m-29.387 872.95 5.3838 10.722c-8.7183 4.4271-16.941 7.5367-17.773-9.0134z"/>
     </g>
     <g transform="matrix(.39653 0 0 .39653 232.74 514.89)">
      <path d="m-29.72 872.72-11.997-0.0824c0.02306-9.7779 0.99415-18.515 16.111-11.728z"/>
      <path d="m-29.334 872.92 5.7536-10.528c8.6013 4.6503 15.837 9.6429 2.7006 19.744z"/>
      <path d="m-29.387 872.95 5.3838 10.722c-8.7183 4.4271-16.941 7.5367-17.773-9.0134z"/>
     </g>
     <g transform="matrix(.39653 0 0 .39653 200.63 512.12)">
      <path d="m-29.72 872.72-11.997-0.0824c0.02306-9.7779 0.99415-18.515 16.111-11.728z"/>
      <path d="m-29.334 872.92 5.7536-10.528c8.6013 4.6503 15.837 9.6429 2.7006 19.744z"/>
      <path d="m-29.387 872.95 5.3838 10.722c-8.7183 4.4271-16.941 7.5367-17.773-9.0134z"/>
     </g>
     <g transform="matrix(.39653 0 0 .39653 182.77 488.67)">
      <path d="m-29.72 872.72-11.997-0.0824c0.02306-9.7779 0.99415-18.515 16.111-11.728z"/>
      <path d="m-29.334 872.92 5.7536-10.528c8.6013 4.6503 15.837 9.6429 2.7006 19.744z"/>
      <path d="m-29.387 872.95 5.3838 10.722c-8.7183 4.4271-16.941 7.5367-17.773-9.0134z"/>
     </g>
     <g transform="matrix(-.39653 0 0 .39653 171.78 536.75)">
      <path d="m-29.72 872.72-11.997-0.0824c0.02306-9.7779 0.99415-18.515 16.111-11.728z"/>
      <path d="m-29.334 872.92 5.7536-10.528c8.6013 4.6503 15.837 9.6429 2.7006 19.744z"/>
      <path d="m-29.387 872.95 5.3838 10.722c-8.7183 4.4271-16.941 7.5367-17.773-9.0134z"/>
     </g>
     <g transform="matrix(-.39653 0 0 -.39653 146.72 1226.7)">
      <path d="m-29.72 872.72-11.997-0.0824c0.02306-9.7779 0.99415-18.515 16.111-11.728z"/>
      <path d="m-29.334 872.92 5.7536-10.528c8.6013 4.6503 15.837 9.6429 2.7006 19.744z"/>
      <path d="m-29.387 872.95 5.3838 10.722c-8.7183 4.4271-16.941 7.5367-17.773-9.0134z"/>
     </g>
     <g transform="matrix(.39653 0 0 .39653 167.69 545.73)">
      <path d="m-29.72 872.72-11.997-0.0824c0.02306-9.7779 0.99415-18.515 16.111-11.728z"/>
      <path d="m-29.334 872.92 5.7536-10.528c8.6013 4.6503 15.837 9.6429 2.7006 19.744z"/>
      <path d="m-29.387 872.95 5.3838 10.722c-8.7183 4.4271-16.941 7.5367-17.773-9.0134z"/>
     </g>
     <g transform="matrix(.39653 0 0 .39653 181.35 553.68)">
      <path d="m-29.72 872.72-11.997-0.0824c0.02306-9.7779 0.99415-18.515 16.111-11.728z"/>
      <path d="m-29.334 872.92 5.7536-10.528c8.6013 4.6503 15.837 9.6429 2.7006 19.744z"/>
      <path d="m-29.387 872.95 5.3838 10.722c-8.7183 4.4271-16.941 7.5367-17.773-9.0134z"/>
     </g>
     <g transform="matrix(.39653 0 0 .39653 193.95 549.96)">
      <path d="m-29.72 872.72-11.997-0.0824c0.02306-9.7779 0.99415-18.515 16.111-11.728z"/>
      <path d="m-29.334 872.92 5.7536-10.528c8.6013 4.6503 15.837 9.6429 2.7006 19.744z"/>
      <path d="m-29.387 872.95 5.3838 10.722c-8.7183 4.4271-16.941 7.5367-17.773-9.0134z"/>
     </g>
     <g transform="matrix(.39653 0 0 .39653 156.95 564.38)">
      <path d="m-29.72 872.72-11.997-0.0824c0.02306-9.7779 0.99415-18.515 16.111-11.728z"/>
      <path d="m-29.334 872.92 5.7536-10.528c8.6013 4.6503 15.837 9.6429 2.7006 19.744z"/>
      <path d="m-29.387 872.95 5.3838 10.722c-8.7183 4.4271-16.941 7.5367-17.773-9.0134z"/>
     </g>
     <g transform="matrix(.39653 0 0 .39653 160.05 514.77)">
      <path d="m-29.72 872.72-11.997-0.0824c0.02306-9.7779 0.99415-18.515 16.111-11.728z"/>
      <path d="m-29.334 872.92 5.7536-10.528c8.6013 4.6503 15.837 9.6429 2.7006 19.744z"/>
      <path d="m-29.387 872.95 5.3838 10.722c-8.7183 4.4271-16.941 7.5367-17.773-9.0134z"/>
     </g>
     <g transform="matrix(.39653 0 0 -.39653 172.86 1189.4)">
      <path d="m-29.72 872.72-11.997-0.0824c0.02306-9.7779 0.99415-18.515 16.111-11.728z"/>
      <path d="m-29.334 872.92 5.7536-10.528c8.6013 4.6503 15.837 9.6429 2.7006 19.744z"/>
      <path d="m-29.387 872.95 5.3838 10.722c-8.7183 4.4271-16.941 7.5367-17.773-9.0134z"/>
     </g>
     <g transform="matrix(-.39653 0 0 .39653 131.69 538.82)">
      <path d="m-29.72 872.72-11.997-0.0824c0.02306-9.7779 0.99415-18.515 16.111-11.728z"/>
      <path d="m-29.334 872.92 5.7536-10.528c8.6013 4.6503 15.837 9.6429 2.7006 19.744z"/>
      <path d="m-29.387 872.95 5.3838 10.722c-8.7183 4.4271-16.941 7.5367-17.773-9.0134z"/>
     </g>
     <g transform="matrix(.39653 0 0 .39653 124.45 532.24)">
      <path d="m-29.72 872.72-11.997-0.0824c0.02306-9.7779 0.99415-18.515 16.111-11.728z"/>
      <path d="m-29.334 872.92 5.7536-10.528c8.6013 4.6503 15.837 9.6429 2.7006 19.744z"/>
      <path d="m-29.387 872.95 5.3838 10.722c-8.7183 4.4271-16.941 7.5367-17.773-9.0134z"/>
     </g>
     <g transform="matrix(.39653 0 0 .39653 134.63 540.36)">
      <path d="m-29.72 872.72-11.997-0.0824c0.02306-9.7779 0.99415-18.515 16.111-11.728z"/>
      <path d="m-29.334 872.92 5.7536-10.528c8.6013 4.6503 15.837 9.6429 2.7006 19.744z"/>
      <path d="m-29.387 872.95 5.3838 10.722c-8.7183 4.4271-16.941 7.5367-17.773-9.0134z"/>
     </g>
     <g transform="matrix(-.36039 .16538 .16538 .36039 -25.269 595.97)">
      <path d="m-29.72 872.72-11.997-0.0824c0.02306-9.7779 0.99415-18.515 16.111-11.728z"/>
      <path d="m-29.334 872.92 5.7536-10.528c8.6013 4.6503 15.837 9.6429 2.7006 19.744z"/>
      <path d="m-29.387 872.95 5.3838 10.722c-8.7183 4.4271-16.941 7.5367-17.773-9.0134z"/>
     </g>
     <g transform="matrix(.39653 0 0 .39653 143.06 571.59)">
      <path d="m-29.72 872.72-11.997-0.0824c0.02306-9.7779 0.99415-18.515 16.111-11.728z"/>
      <path d="m-29.334 872.92 5.7536-10.528c8.6013 4.6503 15.837 9.6429 2.7006 19.744z"/>
      <path d="m-29.387 872.95 5.3838 10.722c-8.7183 4.4271-16.941 7.5367-17.773-9.0134z"/>
     </g>
     <g transform="matrix(.39653 0 0 .39653 130.72 570.46)">
      <path d="m-29.72 872.72-11.997-0.0824c0.02306-9.7779 0.99415-18.515 16.111-11.728z"/>
      <path d="m-29.334 872.92 5.7536-10.528c8.6013 4.6503 15.837 9.6429 2.7006 19.744z"/>
      <path d="m-29.387 872.95 5.3838 10.722c-8.7183 4.4271-16.941 7.5367-17.773-9.0134z"/>
     </g>
     <g transform="matrix(-.39653 0 0 .39653 108.33 553.76)">
      <path d="m-29.72 872.72-11.997-0.0824c0.02306-9.7779 0.99415-18.515 16.111-11.728z"/>
      <path d="m-29.334 872.92 5.7536-10.528c8.6013 4.6503 15.837 9.6429 2.7006 19.744z"/>
      <path d="m-29.387 872.95 5.3838 10.722c-8.7183 4.4271-16.941 7.5367-17.773-9.0134z"/>
     </g>
     <g transform="matrix(.39653 0 0 .39653 105.87 561.44)">
      <path d="m-29.72 872.72-11.997-0.0824c0.02306-9.7779 0.99415-18.515 16.111-11.728z"/>
      <path d="m-29.334 872.92 5.7536-10.528c8.6013 4.6503 15.837 9.6429 2.7006 19.744z"/>
      <path d="m-29.387 872.95 5.3838 10.722c-8.7183 4.4271-16.941 7.5367-17.773-9.0134z"/>
     </g>
     <g transform="matrix(.31423 -.24185 .24185 .31423 -120.03 622.58)">
      <path d="m-29.72 872.72-11.997-0.0824c0.02306-9.7779 0.99415-18.515 16.111-11.728z"/>
      <path d="m-29.334 872.92 5.7536-10.528c8.6013 4.6503 15.837 9.6429 2.7006 19.744z"/>
      <path d="m-29.387 872.95 5.3838 10.722c-8.7183 4.4271-16.941 7.5367-17.773-9.0134z"/>
     </g>
     <g transform="matrix(.29253 .26769 -.26769 .29253 327.7 645.28)">
      <path d="m-29.72 872.72-11.997-0.0824c0.02306-9.7779 0.99415-18.515 16.111-11.728z"/>
      <path d="m-29.334 872.92 5.7536-10.528c8.6013 4.6503 15.837 9.6429 2.7006 19.744z"/>
      <path d="m-29.387 872.95 5.3838 10.722c-8.7183 4.4271-16.941 7.5367-17.773-9.0134z"/>
     </g>
     <g transform="matrix(.39653 0 0 .39653 108.9 547.83)">
      <path d="m-29.72 872.72-11.997-0.0824c0.02306-9.7779 0.99415-18.515 16.111-11.728z"/>
      <path d="m-29.334 872.92 5.7536-10.528c8.6013 4.6503 15.837 9.6429 2.7006 19.744z"/>
      <path d="m-29.387 872.95 5.3838 10.722c-8.7183 4.4271-16.941 7.5367-17.773-9.0134z"/>
     </g>
     <g transform="matrix(.39653 0 0 .39653 122.69 544.33)">
      <path d="m-29.72 872.72-11.997-0.0824c0.02306-9.7779 0.99415-18.515 16.111-11.728z"/>
      <path d="m-29.334 872.92 5.7536-10.528c8.6013 4.6503 15.837 9.6429 2.7006 19.744z"/>
      <path d="m-29.387 872.95 5.3838 10.722c-8.7183 4.4271-16.941 7.5367-17.773-9.0134z"/>
     </g>
     <g transform="matrix(.39653 0 0 .39653 113 535.44)">
      <path d="m-29.72 872.72-11.997-0.0824c0.02306-9.7779 0.99415-18.515 16.111-11.728z"/>
      <path d="m-29.334 872.92 5.7536-10.528c8.6013 4.6503 15.837 9.6429 2.7006 19.744z"/>
      <path d="m-29.387 872.95 5.3838 10.722c-8.7183 4.4271-16.941 7.5367-17.773-9.0134z"/>
     </g>
     <g transform="matrix(.39653 0 0 .39653 118.42 557.23)">
      <path d="m-29.72 872.72-11.997-0.0824c0.02306-9.7779 0.99415-18.515 16.111-11.728z"/>
      <path d="m-29.334 872.92 5.7536-10.528c8.6013 4.6503 15.837 9.6429 2.7006 19.744z"/>
      <path d="m-29.387 872.95 5.3838 10.722c-8.7183 4.4271-16.941 7.5367-17.773-9.0134z"/>
     </g>
     <g transform="matrix(.39653 0 0 .39653 90.032 535.7)">
      <path d="m-29.72 872.72-11.997-0.0824c0.02306-9.7779 0.99415-18.515 16.111-11.728z"/>
      <path d="m-29.334 872.92 5.7536-10.528c8.6013 4.6503 15.837 9.6429 2.7006 19.744z"/>
      <path d="m-29.387 872.95 5.3838 10.722c-8.7183 4.4271-16.941 7.5367-17.773-9.0134z"/>
     </g>
     <g transform="matrix(.28982 -.27062 .27062 .28982 -137.15 617.91)">
      <path d="m-29.72 872.72-11.997-0.0824c0.02306-9.7779 0.99415-18.515 16.111-11.728z"/>
      <path d="m-29.334 872.92 5.7536-10.528c8.6013 4.6503 15.837 9.6429 2.7006 19.744z"/>
      <path d="m-29.387 872.95 5.3838 10.722c-8.7183 4.4271-16.941 7.5367-17.773-9.0134z"/>
     </g>
     <g transform="matrix(.32378 .22891 -.22891 .32378 341.16 618.02)">
      <path d="m-29.72 872.72-11.997-0.0824c0.02306-9.7779 0.99415-18.515 16.111-11.728z"/>
      <path d="m-29.334 872.92 5.7536-10.528c8.6013 4.6503 15.837 9.6429 2.7006 19.744z"/>
      <path d="m-29.387 872.95 5.3838 10.722c-8.7183 4.4271-16.941 7.5367-17.773-9.0134z"/>
     </g>
     <g transform="matrix(.39653 0 0 .39653 155.86 551.85)">
      <path d="m-29.72 872.72-11.997-0.0824c0.02306-9.7779 0.99415-18.515 16.111-11.728z"/>
      <path d="m-29.334 872.92 5.7536-10.528c8.6013 4.6503 15.837 9.6429 2.7006 19.744z"/>
      <path d="m-29.387 872.95 5.3838 10.722c-8.7183 4.4271-16.941 7.5367-17.773-9.0134z"/>
     </g>
     <g transform="matrix(.39653 0 0 .39653 204.31 557.48)">
      <path d="m-29.72 872.72-11.997-0.0824c0.02306-9.7779 0.99415-18.515 16.111-11.728z"/>
      <path d="m-29.334 872.92 5.7536-10.528c8.6013 4.6503 15.837 9.6429 2.7006 19.744z"/>
      <path d="m-29.387 872.95 5.3838 10.722c-8.7183 4.4271-16.941 7.5367-17.773-9.0134z"/>
     </g>
     <g transform="matrix(-.39653 0 0 .39653 121.39 531.54)">
      <path d="m-29.72 872.72-11.997-0.0824c0.02306-9.7779 0.99415-18.515 16.111-11.728z"/>
      <path d="m-29.334 872.92 5.7536-10.528c8.6013 4.6503 15.837 9.6429 2.7006 19.744z"/>
      <path d="m-29.387 872.95 5.3838 10.722c-8.7183 4.4271-16.941 7.5367-17.773-9.0134z"/>
     </g>
     <g transform="matrix(.39653 0 0 .39653 159.53 526.4)">
      <path d="m-29.72 872.72-11.997-0.0824c0.02306-9.7779 0.99415-18.515 16.111-11.728z"/>
      <path d="m-29.334 872.92 5.7536-10.528c8.6013 4.6503 15.837 9.6429 2.7006 19.744z"/>
      <path d="m-29.387 872.95 5.3838 10.722c-8.7183 4.4271-16.941 7.5367-17.773-9.0134z"/>
     </g>
     <g transform="matrix(.39653 0 0 .39653 133.34 524.69)">
      <path d="m-29.72 872.72-11.997-0.0824c0.02306-9.7779 0.99415-18.515 16.111-11.728z"/>
      <path d="m-29.334 872.92 5.7536-10.528c8.6013 4.6503 15.837 9.6429 2.7006 19.744z"/>
      <path d="m-29.387 872.95 5.3838 10.722c-8.7183 4.4271-16.941 7.5367-17.773-9.0134z"/>
     </g>
     <g transform="matrix(.39653 0 0 .39653 146.56 518.57)">
      <path d="m-29.72 872.72-11.997-0.0824c0.02306-9.7779 0.99415-18.515 16.111-11.728z"/>
      <path d="m-29.334 872.92 5.7536-10.528c8.6013 4.6503 15.837 9.6429 2.7006 19.744z"/>
      <path d="m-29.387 872.95 5.3838 10.722c-8.7183 4.4271-16.941 7.5367-17.773-9.0134z"/>
     </g>
     <g transform="matrix(-.39653 0 0 .39653 92.513 523.22)">
      <path d="m-29.72 872.72-11.997-0.0824c0.02306-9.7779 0.99415-18.515 16.111-11.728z"/>
      <path d="m-29.334 872.92 5.7536-10.528c8.6013 4.6503 15.837 9.6429 2.7006 19.744z"/>
      <path d="m-29.387 872.95 5.3838 10.722c-8.7183 4.4271-16.941 7.5367-17.773-9.0134z"/>
     </g>
     <g transform="matrix(.39653 0 0 .39653 171.27 522.24)">
      <path d="m-29.72 872.72-11.997-0.0824c0.02306-9.7779 0.99415-18.515 16.111-11.728z"/>
      <path d="m-29.334 872.92 5.7536-10.528c8.6013 4.6503 15.837 9.6429 2.7006 19.744z"/>
      <path d="m-29.387 872.95 5.3838 10.722c-8.7183 4.4271-16.941 7.5367-17.773-9.0134z"/>
     </g>
     <g transform="matrix(-.39653 0 0 .39653 159.81 525.42)">
      <path d="m-29.72 872.72-11.997-0.0824c0.02306-9.7779 0.99415-18.515 16.111-11.728z"/>
      <path d="m-29.334 872.92 5.7536-10.528c8.6013 4.6503 15.837 9.6429 2.7006 19.744z"/>
      <path d="m-29.387 872.95 5.3838 10.722c-8.7183 4.4271-16.941 7.5367-17.773-9.0134z"/>
     </g>
     <g transform="matrix(.39653 0 0 .39653 174.94 510.25)">
      <path d="m-29.72 872.72-11.997-0.0824c0.02306-9.7779 0.99415-18.515 16.111-11.728z"/>
      <path d="m-29.334 872.92 5.7536-10.528c8.6013 4.6503 15.837 9.6429 2.7006 19.744z"/>
      <path d="m-29.387 872.95 5.3838 10.722c-8.7183 4.4271-16.941 7.5367-17.773-9.0134z"/>
     </g>
     <g transform="matrix(.39653 0 0 .39653 134.57 499.24)">
      <path d="m-29.72 872.72-11.997-0.0824c0.02306-9.7779 0.99415-18.515 16.111-11.728z"/>
      <path d="m-29.334 872.92 5.7536-10.528c8.6013 4.6503 15.837 9.6429 2.7006 19.744z"/>
      <path d="m-29.387 872.95 5.3838 10.722c-8.7183 4.4271-16.941 7.5367-17.773-9.0134z"/>
     </g>
     <g transform="matrix(.39653 0 0 .39653 148.03 492.88)">
      <path d="m-29.72 872.72-11.997-0.0824c0.02306-9.7779 0.99415-18.515 16.111-11.728z"/>
      <path d="m-29.334 872.92 5.7536-10.528c8.6013 4.6503 15.837 9.6429 2.7006 19.744z"/>
      <path d="m-29.387 872.95 5.3838 10.722c-8.7183 4.4271-16.941 7.5367-17.773-9.0134z"/>
     </g>
     <g transform="matrix(-.39653 0 0 .39653 149.04 481.62)">
      <path d="m-29.72 872.72-11.997-0.0824c0.02306-9.7779 0.99415-18.515 16.111-11.728z"/>
      <path d="m-29.334 872.92 5.7536-10.528c8.6013 4.6503 15.837 9.6429 2.7006 19.744z"/>
      <path d="m-29.387 872.95 5.3838 10.722c-8.7183 4.4271-16.941 7.5367-17.773-9.0134z"/>
     </g>
     <g transform="matrix(.39653 0 0 .39653 187.14 511.42)">
      <path d="m-29.72 872.72-11.997-0.0824c0.02306-9.7779 0.99415-18.515 16.111-11.728z"/>
      <path d="m-29.334 872.92 5.7536-10.528c8.6013 4.6503 15.837 9.6429 2.7006 19.744z"/>
      <path d="m-29.387 872.95 5.3838 10.722c-8.7183 4.4271-16.941 7.5367-17.773-9.0134z"/>
     </g>
     <g transform="matrix(.39653 0 0 .39653 195.1 524.23)">
      <path d="m-29.72 872.72-11.997-0.0824c0.02306-9.7779 0.99415-18.515 16.111-11.728z"/>
      <path d="m-29.334 872.92 5.7536-10.528c8.6013 4.6503 15.837 9.6429 2.7006 19.744z"/>
      <path d="m-29.387 872.95 5.3838 10.722c-8.7183 4.4271-16.941 7.5367-17.773-9.0134z"/>
     </g>
     <g transform="matrix(.39653 0 0 -.39653 195.79 1180.8)">
      <path d="m-29.72 872.72-11.997-0.0824c0.02306-9.7779 0.99415-18.515 16.111-11.728z"/>
      <path d="m-29.334 872.92 5.7536-10.528c8.6013 4.6503 15.837 9.6429 2.7006 19.744z"/>
      <path d="m-29.387 872.95 5.3838 10.722c-8.7183 4.4271-16.941 7.5367-17.773-9.0134z"/>
     </g>
     <g transform="matrix(-.39653 0 0 .39653 165.15 500.35)">
      <path d="m-29.72 872.72-11.997-0.0824c0.02306-9.7779 0.99415-18.515 16.111-11.728z"/>
      <path d="m-29.334 872.92 5.7536-10.528c8.6013 4.6503 15.837 9.6429 2.7006 19.744z"/>
      <path d="m-29.387 872.95 5.3838 10.722c-8.7183 4.4271-16.941 7.5367-17.773-9.0134z"/>
     </g>
     <g transform="matrix(.39653 0 0 .39653 199.94 500.35)">
      <path d="m-29.72 872.72-11.997-0.0824c0.02306-9.7779 0.99415-18.515 16.111-11.728z"/>
      <path d="m-29.334 872.92 5.7536-10.528c8.6013 4.6503 15.837 9.6429 2.7006 19.744z"/>
      <path d="m-29.387 872.95 5.3838 10.722c-8.7183 4.4271-16.941 7.5367-17.773-9.0134z"/>
     </g>
     <g transform="matrix(.39653 0 0 .39653 210.32 520.42)">
      <path d="m-29.72 872.72-11.997-0.0824c0.02306-9.7779 0.99415-18.515 16.111-11.728z"/>
      <path d="m-29.334 872.92 5.7536-10.528c8.6013 4.6503 15.837 9.6429 2.7006 19.744z"/>
      <path d="m-29.387 872.95 5.3838 10.722c-8.7183 4.4271-16.941 7.5367-17.773-9.0134z"/>
     </g>
     <g transform="matrix(.39653 0 0 .39653 221.05 526.65)">
      <path d="m-29.72 872.72-11.997-0.0824c0.02306-9.7779 0.99415-18.515 16.111-11.728z"/>
      <path d="m-29.334 872.92 5.7536-10.528c8.6013 4.6503 15.837 9.6429 2.7006 19.744z"/>
      <path d="m-29.387 872.95 5.3838 10.722c-8.7183 4.4271-16.941 7.5367-17.773-9.0134z"/>
     </g>
     <g transform="matrix(.39653 0 0 .39653 232.82 527)">
      <path d="m-29.72 872.72-11.997-0.0824c0.02306-9.7779 0.99415-18.515 16.111-11.728z"/>
      <path d="m-29.334 872.92 5.7536-10.528c8.6013 4.6503 15.837 9.6429 2.7006 19.744z"/>
      <path d="m-29.387 872.95 5.3838 10.722c-8.7183 4.4271-16.941 7.5367-17.773-9.0134z"/>
     </g>
     <g transform="matrix(-.39653 0 0 .39653 197.68 512.81)">
      <path d="m-29.72 872.72-11.997-0.0824c0.02306-9.7779 0.99415-18.515 16.111-11.728z"/>
      <path d="m-29.334 872.92 5.7536-10.528c8.6013 4.6503 15.837 9.6429 2.7006 19.744z"/>
      <path d="m-29.387 872.95 5.3838 10.722c-8.7183 4.4271-16.941 7.5367-17.773-9.0134z"/>
     </g>
     <g transform="matrix(.39653 0 0 .39653 250.81 528.38)">
      <path d="m-29.72 872.72-11.997-0.0824c0.02306-9.7779 0.99415-18.515 16.111-11.728z"/>
      <path d="m-29.334 872.92 5.7536-10.528c8.6013 4.6503 15.837 9.6429 2.7006 19.744z"/>
      <path d="m-29.387 872.95 5.3838 10.722c-8.7183 4.4271-16.941 7.5367-17.773-9.0134z"/>
     </g>
     <g transform="matrix(-.39653 0 0 .39653 233.47 517.31)">
      <path d="m-29.72 872.72-11.997-0.0824c0.02306-9.7779 0.99415-18.515 16.111-11.728z"/>
      <path d="m-29.334 872.92 5.7536-10.528c8.6013 4.6503 15.837 9.6429 2.7006 19.744z"/>
      <path d="m-29.387 872.95 5.3838 10.722c-8.7183 4.4271-16.941 7.5367-17.773-9.0134z"/>
     </g>
     <g transform="matrix(.39653 0 0 .39653 253.23 507.62)">
      <path d="m-29.72 872.72-11.997-0.0824c0.02306-9.7779 0.99415-18.515 16.111-11.728z"/>
      <path d="m-29.334 872.92 5.7536-10.528c8.6013 4.6503 15.837 9.6429 2.7006 19.744z"/>
      <path d="m-29.387 872.95 5.3838 10.722c-8.7183 4.4271-16.941 7.5367-17.773-9.0134z"/>
     </g>
     <g transform="matrix(.39653 0 0 .39653 241.47 505.89)">
      <path d="m-29.72 872.72-11.997-0.0824c0.02306-9.7779 0.99415-18.515 16.111-11.728z"/>
      <path d="m-29.334 872.92 5.7536-10.528c8.6013 4.6503 15.837 9.6429 2.7006 19.744z"/>
      <path d="m-29.387 872.95 5.3838 10.722c-8.7183 4.4271-16.941 7.5367-17.773-9.0134z"/>
     </g>
     <g transform="matrix(-.39653 0 0 .39653 207.71 502.08)">
      <path d="m-29.72 872.72-11.997-0.0824c0.02306-9.7779 0.99415-18.515 16.111-11.728z"/>
      <path d="m-29.334 872.92 5.7536-10.528c8.6013 4.6503 15.837 9.6429 2.7006 19.744z"/>
      <path d="m-29.387 872.95 5.3838 10.722c-8.7183 4.4271-16.941 7.5367-17.773-9.0134z"/>
     </g>
     <g transform="matrix(.39653 0 0 .39653 214.47 504.16)">
      <path d="m-29.72 872.72-11.997-0.0824c0.02306-9.7779 0.99415-18.515 16.111-11.728z"/>
      <path d="m-29.334 872.92 5.7536-10.528c8.6013 4.6503 15.837 9.6429 2.7006 19.744z"/>
      <path d="m-29.387 872.95 5.3838 10.722c-8.7183 4.4271-16.941 7.5367-17.773-9.0134z"/>
     </g>
     <g transform="matrix(-.39653 0 0 .39653 200.45 492.39)">
      <path d="m-29.72 872.72-11.997-0.0824c0.02306-9.7779 0.99415-18.515 16.111-11.728z"/>
      <path d="m-29.334 872.92 5.7536-10.528c8.6013 4.6503 15.837 9.6429 2.7006 19.744z"/>
      <path d="m-29.387 872.95 5.3838 10.722c-8.7183 4.4271-16.941 7.5367-17.773-9.0134z"/>
     </g>
     <g transform="matrix(.39653 0 0 .39653 231.78 480.28)">
      <path d="m-29.72 872.72-11.997-0.0824c0.02306-9.7779 0.99415-18.515 16.111-11.728z"/>
      <path d="m-29.334 872.92 5.7536-10.528c8.6013 4.6503 15.837 9.6429 2.7006 19.744z"/>
      <path d="m-29.387 872.95 5.3838 10.722c-8.7183 4.4271-16.941 7.5367-17.773-9.0134z"/>
     </g>
     <g transform="matrix(.39653 0 0 .39653 217.94 479.24)">
      <path d="m-29.72 872.72-11.997-0.0824c0.02306-9.7779 0.99415-18.515 16.111-11.728z"/>
      <path d="m-29.334 872.92 5.7536-10.528c8.6013 4.6503 15.837 9.6429 2.7006 19.744z"/>
      <path d="m-29.387 872.95 5.3838 10.722c-8.7183 4.4271-16.941 7.5367-17.773-9.0134z"/>
     </g>
    </g>
    <path d="m66.942 1039.7c-2.8863 2.1978 113.75 1.8175 118.81-0.1488 21.318-0.4608 32.542-2.4426 4.9131-6.6998l-89.478-0.5955-22.035 0.5955c-13.573 2.8769-10.369 4.7052-12.208 6.8486z" fill="#242521"/>
    <g transform="matrix(.60843 0 0 .60843 -9.8812 322.63)">
     <path d="m165.91 1076.3 209.95 0.9788 17.129 1.4682s8.541 9.0514 5.8728 10.277c-9.0538 4.1599-50.897 5.6281-53.344 7.0963-2.447 1.4682-152.94 0.4893-152.94 0.4893-32.05-1.2931-35.303-2.6868-44.29-11.501-0.53171-3.3633-2.0186-6.7903 17.618-8.8091z" fill="#b7c8be"/>
     <path d="m148.37 1085.9 0.96461 5.8479c1.6966 2.9066 5.3436 3.8627 8.7276 5.0819 29.997 18.146 89.896 4.4294 134.35 5.4898l53.344-1.4682 24.959-2.9364 20.31-1.4681c3.5836-0.1163 4.4526-1.3185 6.1175-2.2023 1.1804-1.4623 2.0083-3.1361 1.1369-5.8295z" fill="#93ac9d"/>
     <path d="m158.34 1096.7 231.7-0.273c-2.5216 3.129-4.8201 6.3324-4.894 10.277-2.0856 13.373-0.0493 29.494-7.341 39.396l-4.6493 7.5856s-0.0589 5.1336-1.5088 7.0503c-1.4937 1.9746-6.5663 3.4718-6.5663 3.4718l-8.075 10.033c-10.179 1.3789-16.862 1.1689-22.512 0.4894l-9.5432-7.0963-102.53 0.2447s-12.03 5.7864-13.458 6.8516c-1.3249 0.9883-18.066 2.8846-20.31 0-3.4558 1.1177-11.123-8.6014-18.352-15.661-3.2577-4.0393-1.7289-6.1337-1.2235-8.8091-8.416-13.23-10.642-34.416-10.742-53.561z" fill="#536c5d"/>
     <path d="m177.65 1100.8 11.99 9.5433c-1.3347 8.2187 9.1594 45.623 7.6505 49.171-2.3265-2.8806-14.693-0.7414-22.822-0.7207 7.4786 2.4152 15.198 1.9713 19.457 6.2586l1.0974 7.4445c6.1875-7.9417 15.159-8.8046 24.508-7.976 43.263-1.4482 70.668 0.072 119.62-0.8331-0.59435 3.0919-5.2304 10.96-0.55697 5.1512 5.0091-6.9605 15.784-4.6469 23.001-6.9654 1.3618-6.4508-13.579-0.062-18.116-4.5038 2.3528-15.565 9.0893-35.84 11.334-51.431 6.3622-2.3654 21.044-5.2203 27.406-7.5857-8.4789 1.5301-27.012 3.287-34.104 6.5072-5.2826 17.236-8.811 34.922-12.878 52.465-44.473 3.9291-88.036 2.582-129.45 1.2235-5.5389-19.8-6.9632-33.284-8.5644-52.855-6.5253-1.6313-13.051-3.2627-19.576-4.894z" fill="#37483e" filter="url(#filter10014)"/>
    </g>
    <path d="m141.53 966.2c-4.7462 1.6577-8.2894 5.2518-13.414 2.5734-4.2406-0.14183-7.861 2.3352-12.084 2.9015-5.0583 1.3622-9.4791 3.9334-14.553 5.012-3.9904 1.542-8.3663 1.7906-12.043 4.2246 4.3836 1.7719 9.8559 0.0468 14.662 0.58391 9.2358-0.25877 18.526 0.094 27.719-0.90948 4.7781-1.1064 9.7502-0.67317 14.61-0.5721 7.5678 1.6338 15.372 0.16208 23.007 1.0865 5.6794-0.19561 11.356 0.11688 16.999 0.58348h34.6c5.4638 1.0601-1.396-3.801-3.7677-2.238-5.7004-0.44063-11.322-1.9524-17.032-2.6675-5.2184-2.1393-11.126-2.9212-15.851-5.8551-4.7347-3.6946-11.233-4.8297-17.137-4.5127-5.0747-1.3208-10.379-1.3001-15.54-0.65717-3.4065-0.10636-6.7976 0.0656-10.175 0.44665z" fill="#3b3829"/>
    <g transform="matrix(-.015051 -.54251 .54251 -.015051 -427.92 1133.4)">
     <path d="m269.03 1057.1c9.3956-6.0793 60.605 14.754 71.574 16.244 12.113 3.666 24.263 7.7821 37.041 7.8851 7.4994 1.2248 16.105 0.4196 20.663-6.6182 11.788-7.2502-21.7 38.551-7.8628 36.586 11.614-4.2432 16.871-21.171 28.966-23.072 10.288 0.1321 25.284-0.3101 35.166 2.4348 5.3418 0.4318 104.74 3.0549 92.076 2.8131-12.634 2.3193-108.85 19.754-121.55 19.7-11.329 0.8591-21.801 5.3225-32.364 8.7395-11.543 2.4706 24.009-44.865 13.841-38.922-11.19 2.2482-20.389 11.552-31.886 11.108-6.3657-0.7013-69.578 18.501-82.981 25.018s28.867 13.007-16.824 12.195c-6.6118-2.7028 1.1314-72.932-5.8623-74.11z" fill="#2b1100"/>
     <path d="m217.36 1147.5c8.2907-5.5942 23.957-12.446 31.361-20.038 3.6831-6.2689 29.275-0.2446 17.548 2.5852-6.225 2.9428 10.565 2.1014-7.0972 17.06 7.9444 0.365 22.207-2.4857 23.789-11.672 9.9202-1.8197 6.0816-9.3273-0.0797-13.783-6.8812-10.852 12.25-15.911 15.719-5.0496-1.8484 10.718 7.0495 17.201 13.729 21.967 23.393 29.691-16.875-41.758 31.893-26.424 7.2512 5.6754 16.61 10.099 26.077 10.65 42.278 8.2671 100.8-12.923 117.15-19.25-13.649-26.907 11.493 12.039 34.564-12.504-9.9247-1.1744-35.121-10.477-41.848-2.3552-8.5783 6.3007-64.405-20.234-72.096-13.956-10.586 2.8446-10.66 13.322-15.592 20.47-23.373 1.1593-43.485-20.168-61.665-30.234-18.495-7.1131-39.154-6.8602-55.542-15.252-9.4759-1.8033-0.90853 9.9874 4.9088 9.2898 11.125 3.8444-2.6784 8.8657-7.5908 4.4859-8.3167 1.3226-11.237 5.3482-11.738 16.162 41.798 31.194-10.531 7.546-19.051 13.089-0.3923 6.0179 8.7274 7.3359 8.6091 14.94 5.8089 8.0789-1.4417 14.391-12.882 17.69-10.112 5.9192-18.808 16.053-20.171 22.129z" fill="#502d16"/>
     <path d="m311.34 1067.4c9.8154-3.0069 7.8649 0.3713 17.951 3.9091 11.051 3.0373 19.328 9.4656 30.48 12.36 8.5534 4.9506 21.815 5.8093 32.127 3.5593 24.218-9.6341 27.184-0.8218 79.677 0.7222 4.4216 1.2579-39.388 1.6577-29.348 14.932-37.062-10.753-48.899 7.4718-74.048 9.2275-11.063 0.4363 1.7072-19.635-8.8309-24.319-14.786-4.6129-23.975 5.5176-36.91-2.7589-5.6915-4.5944-27.232-15.484-32.629-20.338z" fill="#784421"/>
    </g>
    <g transform="matrix(1 0 0 1.2011 0 -185.68)" fill="#008000">
     <g transform="matrix(.39653 0 0 .39653 121.39 470.94)">
      <path d="m-29.72 872.72-11.997-0.0824c0.02306-9.7779 0.99415-18.515 16.111-11.728z"/>
      <path d="m-29.334 872.92 5.7536-10.528c8.6013 4.6503 15.837 9.6429 2.7006 19.744z"/>
      <path d="m-29.387 872.95 5.3838 10.722c-8.7183 4.4271-16.941 7.5367-17.773-9.0134z"/>
     </g>
     <g transform="matrix(.39653 0 0 .39653 131.77 478.2)">
      <path d="m-29.72 872.72-11.997-0.0824c0.02306-9.7779 0.99415-18.515 16.111-11.728z"/>
      <path d="m-29.334 872.92 5.7536-10.528c8.6013 4.6503 15.837 9.6429 2.7006 19.744z"/>
      <path d="m-29.387 872.95 5.3838 10.722c-8.7183 4.4271-16.941 7.5367-17.773-9.0134z"/>
     </g>
     <g transform="matrix(.39653 0 0 .39653 140.42 465.05)">
      <path d="m-29.72 872.72-11.997-0.0824c0.02306-9.7779 0.99415-18.515 16.111-11.728z"/>
      <path d="m-29.334 872.92 5.7536-10.528c8.6013 4.6503 15.837 9.6429 2.7006 19.744z"/>
      <path d="m-29.387 872.95 5.3838 10.722c-8.7183 4.4271-16.941 7.5367-17.773-9.0134z"/>
     </g>
     <g transform="matrix(.39653 0 0 .39653 146.3 479.24)">
      <path d="m-29.72 872.72-11.997-0.0824c0.02306-9.7779 0.99415-18.515 16.111-11.728z"/>
      <path d="m-29.334 872.92 5.7536-10.528c8.6013 4.6503 15.837 9.6429 2.7006 19.744z"/>
      <path d="m-29.387 872.95 5.3838 10.722c-8.7183 4.4271-16.941 7.5367-17.773-9.0134z"/>
     </g>
     <g transform="matrix(.39653 0 0 .39653 126.58 489.62)">
      <path d="m-29.72 872.72-11.997-0.0824c0.02306-9.7779 0.99415-18.515 16.111-11.728z"/>
      <path d="m-29.334 872.92 5.7536-10.528c8.6013 4.6503 15.837 9.6429 2.7006 19.744z"/>
      <path d="m-29.387 872.95 5.3838 10.722c-8.7183 4.4271-16.941 7.5367-17.773-9.0134z"/>
     </g>
     <g transform="matrix(.39653 0 0 .39653 113.43 485.47)">
      <path d="m-29.72 872.72-11.997-0.0824c0.02306-9.7779 0.99415-18.515 16.111-11.728z"/>
      <path d="m-29.334 872.92 5.7536-10.528c8.6013 4.6503 15.837 9.6429 2.7006 19.744z"/>
      <path d="m-29.387 872.95 5.3838 10.722c-8.7183 4.4271-16.941 7.5367-17.773-9.0134z"/>
     </g>
     <g transform="matrix(.39653 0 0 .39653 115.44 500.25)">
      <path d="m-29.72 872.72-11.997-0.0824c0.02306-9.7779 0.99415-18.515 16.111-11.728z"/>
      <path d="m-29.334 872.92 5.7536-10.528c8.6013 4.6503 15.837 9.6429 2.7006 19.744z"/>
      <path d="m-29.387 872.95 5.3838 10.722c-8.7183 4.4271-16.941 7.5367-17.773-9.0134z"/>
     </g>
     <g transform="matrix(.39653 0 0 .39653 103.74 503.81)">
      <path d="m-29.72 872.72-11.997-0.0824c0.02306-9.7779 0.99415-18.515 16.111-11.728z"/>
      <path d="m-29.334 872.92 5.7536-10.528c8.6013 4.6503 15.837 9.6429 2.7006 19.744z"/>
      <path d="m-29.387 872.95 5.3838 10.722c-8.7183 4.4271-16.941 7.5367-17.773-9.0134z"/>
     </g>
     <g transform="matrix(.39653 0 0 .39653 90.933 509.69)">
      <path d="m-29.72 872.72-11.997-0.0824c0.02306-9.7779 0.99415-18.515 16.111-11.728z"/>
      <path d="m-29.334 872.92 5.7536-10.528c8.6013 4.6503 15.837 9.6429 2.7006 19.744z"/>
      <path d="m-29.387 872.95 5.3838 10.722c-8.7183 4.4271-16.941 7.5367-17.773-9.0134z"/>
     </g>
     <g transform="matrix(.39653 0 0 .39653 97.508 521.11)">
      <path d="m-29.72 872.72-11.997-0.0824c0.02306-9.7779 0.99415-18.515 16.111-11.728z"/>
      <path d="m-29.334 872.92 5.7536-10.528c8.6013 4.6503 15.837 9.6429 2.7006 19.744z"/>
      <path d="m-29.387 872.95 5.3838 10.722c-8.7183 4.4271-16.941 7.5367-17.773-9.0134z"/>
     </g>
     <g transform="matrix(-.33973 -.20449 .20449 -.33973 -91.704 1152.2)">
      <path d="m-29.72 872.72-11.997-0.0824c0.02306-9.7779 0.99415-18.515 16.111-11.728z"/>
      <path d="m-29.334 872.92 5.7536-10.528c8.6013 4.6503 15.837 9.6429 2.7006 19.744z"/>
      <path d="m-29.387 872.95 5.3838 10.722c-8.7183 4.4271-16.941 7.5367-17.773-9.0134z"/>
     </g>
     <g transform="matrix(.39653 0 0 .39653 122.77 511.08)">
      <path d="m-29.72 872.72-11.997-0.0824c0.02306-9.7779 0.99415-18.515 16.111-11.728z"/>
      <path d="m-29.334 872.92 5.7536-10.528c8.6013 4.6503 15.837 9.6429 2.7006 19.744z"/>
      <path d="m-29.387 872.95 5.3838 10.722c-8.7183 4.4271-16.941 7.5367-17.773-9.0134z"/>
     </g>
     <g transform="matrix(.39653 0 0 -.39653 134.55 1203.9)">
      <path d="m-29.72 872.72-11.997-0.0824c0.02306-9.7779 0.99415-18.515 16.111-11.728z"/>
      <path d="m-29.334 872.92 5.7536-10.528c8.6013 4.6503 15.837 9.6429 2.7006 19.744z"/>
      <path d="m-29.387 872.95 5.3838 10.722c-8.7183 4.4271-16.941 7.5367-17.773-9.0134z"/>
     </g>
     <g transform="matrix(.39653 0 0 .39653 146.64 505.2)">
      <path d="m-29.72 872.72-11.997-0.0824c0.02306-9.7779 0.99415-18.515 16.111-11.728z"/>
      <path d="m-29.334 872.92 5.7536-10.528c8.6013 4.6503 15.837 9.6429 2.7006 19.744z"/>
      <path d="m-29.387 872.95 5.3838 10.722c-8.7183 4.4271-16.941 7.5367-17.773-9.0134z"/>
     </g>
     <g transform="matrix(.39653 0 0 .39653 158.56 501.46)">
      <path d="m-29.72 872.72-11.997-0.0824c0.02306-9.7779 0.99415-18.515 16.111-11.728z"/>
      <path d="m-29.334 872.92 5.7536-10.528c8.6013 4.6503 15.837 9.6429 2.7006 19.744z"/>
      <path d="m-29.387 872.95 5.3838 10.722c-8.7183 4.4271-16.941 7.5367-17.773-9.0134z"/>
     </g>
     <g transform="matrix(.39653 0 0 .39653 160.89 486.96)">
      <path d="m-29.72 872.72-11.997-0.0824c0.02306-9.7779 0.99415-18.515 16.111-11.728z"/>
      <path d="m-29.334 872.92 5.7536-10.528c8.6013 4.6503 15.837 9.6429 2.7006 19.744z"/>
      <path d="m-29.387 872.95 5.3838 10.722c-8.7183 4.4271-16.941 7.5367-17.773-9.0134z"/>
     </g>
     <g transform="matrix(.39653 0 0 .39653 155.99 470.24)">
      <path d="m-29.72 872.72-11.997-0.0824c0.02306-9.7779 0.99415-18.515 16.111-11.728z"/>
      <path d="m-29.334 872.92 5.7536-10.528c8.6013 4.6503 15.837 9.6429 2.7006 19.744z"/>
      <path d="m-29.387 872.95 5.3838 10.722c-8.7183 4.4271-16.941 7.5367-17.773-9.0134z"/>
     </g>
     <g transform="matrix(.39653 0 0 .39653 149.76 453.98)">
      <path d="m-29.72 872.72-11.997-0.0824c0.02306-9.7779 0.99415-18.515 16.111-11.728z"/>
      <path d="m-29.334 872.92 5.7536-10.528c8.6013 4.6503 15.837 9.6429 2.7006 19.744z"/>
      <path d="m-29.387 872.95 5.3838 10.722c-8.7183 4.4271-16.941 7.5367-17.773-9.0134z"/>
     </g>
     <g transform="matrix(.39653 0 0 .39653 162.91 457.44)">
      <path d="m-29.72 872.72-11.997-0.0824c0.02306-9.7779 0.99415-18.515 16.111-11.728z"/>
      <path d="m-29.334 872.92 5.7536-10.528c8.6013 4.6503 15.837 9.6429 2.7006 19.744z"/>
      <path d="m-29.387 872.95 5.3838 10.722c-8.7183 4.4271-16.941 7.5367-17.773-9.0134z"/>
     </g>
     <g transform="matrix(.39653 0 0 .39653 168.1 469.9)">
      <path d="m-29.72 872.72-11.997-0.0824c0.02306-9.7779 0.99415-18.515 16.111-11.728z"/>
      <path d="m-29.334 872.92 5.7536-10.528c8.6013 4.6503 15.837 9.6429 2.7006 19.744z"/>
      <path d="m-29.387 872.95 5.3838 10.722c-8.7183 4.4271-16.941 7.5367-17.773-9.0134z"/>
     </g>
     <g transform="matrix(.39653 0 0 .39653 178.49 456.4)">
      <path d="m-29.72 872.72-11.997-0.0824c0.02306-9.7779 0.99415-18.515 16.111-11.728z"/>
      <path d="m-29.334 872.92 5.7536-10.528c8.6013 4.6503 15.837 9.6429 2.7006 19.744z"/>
      <path d="m-29.387 872.95 5.3838 10.722c-8.7183 4.4271-16.941 7.5367-17.773-9.0134z"/>
     </g>
     <g transform="matrix(.39653 0 0 .39653 181.6 468.17)">
      <path d="m-29.72 872.72-11.997-0.0824c0.02306-9.7779 0.99415-18.515 16.111-11.728z"/>
      <path d="m-29.334 872.92 5.7536-10.528c8.6013 4.6503 15.837 9.6429 2.7006 19.744z"/>
      <path d="m-29.387 872.95 5.3838 10.722c-8.7183 4.4271-16.941 7.5367-17.773-9.0134z"/>
     </g>
     <g transform="matrix(.39653 0 0 .39653 189.56 478.2)">
      <path d="m-29.72 872.72-11.997-0.0824c0.02306-9.7779 0.99415-18.515 16.111-11.728z"/>
      <path d="m-29.334 872.92 5.7536-10.528c8.6013 4.6503 15.837 9.6429 2.7006 19.744z"/>
      <path d="m-29.387 872.95 5.3838 10.722c-8.7183 4.4271-16.941 7.5367-17.773-9.0134z"/>
     </g>
     <g transform="matrix(.39653 0 0 .39653 202.36 479.24)">
      <path d="m-29.72 872.72-11.997-0.0824c0.02306-9.7779 0.99415-18.515 16.111-11.728z"/>
      <path d="m-29.334 872.92 5.7536-10.528c8.6013 4.6503 15.837 9.6429 2.7006 19.744z"/>
      <path d="m-29.387 872.95 5.3838 10.722c-8.7183 4.4271-16.941 7.5367-17.773-9.0134z"/>
     </g>
     <g transform="matrix(.39653 0 0 .39653 211.36 491.01)">
      <path d="m-29.72 872.72-11.997-0.0824c0.02306-9.7779 0.99415-18.515 16.111-11.728z"/>
      <path d="m-29.334 872.92 5.7536-10.528c8.6013 4.6503 15.837 9.6429 2.7006 19.744z"/>
      <path d="m-29.387 872.95 5.3838 10.722c-8.7183 4.4271-16.941 7.5367-17.773-9.0134z"/>
     </g>
     <g transform="matrix(.30295 -.25584 .25584 .30295 13.49 566.28)">
      <path d="m-29.72 872.72-11.997-0.0824c0.02306-9.7779 0.99415-18.515 16.111-11.728z"/>
      <path d="m-29.334 872.92 5.7536-10.528c8.6013 4.6503 15.837 9.6429 2.7006 19.744z"/>
      <path d="m-29.387 872.95 5.3838 10.722c-8.7183 4.4271-16.941 7.5367-17.773-9.0134z"/>
     </g>
     <g transform="matrix(.39653 0 0 .39653 249.77 496.89)">
      <path d="m-29.72 872.72-11.997-0.0824c0.02306-9.7779 0.99415-18.515 16.111-11.728z"/>
      <path d="m-29.334 872.92 5.7536-10.528c8.6013 4.6503 15.837 9.6429 2.7006 19.744z"/>
      <path d="m-29.387 872.95 5.3838 10.722c-8.7183 4.4271-16.941 7.5367-17.773-9.0134z"/>
     </g>
     <g transform="matrix(.28356 .27718 -.27718 .28356 502.77 605.6)">
      <path d="m-29.72 872.72-11.997-0.0824c0.02306-9.7779 0.99415-18.515 16.111-11.728z"/>
      <path d="m-29.334 872.92 5.7536-10.528c8.6013 4.6503 15.837 9.6429 2.7006 19.744z"/>
      <path d="m-29.387 872.95 5.3838 10.722c-8.7183 4.4271-16.941 7.5367-17.773-9.0134z"/>
     </g>
     <g transform="matrix(.39653 0 0 .39653 267.08 513.15)">
      <path d="m-29.72 872.72-11.997-0.0824c0.02306-9.7779 0.99415-18.515 16.111-11.728z"/>
      <path d="m-29.334 872.92 5.7536-10.528c8.6013 4.6503 15.837 9.6429 2.7006 19.744z"/>
      <path d="m-29.387 872.95 5.3838 10.722c-8.7183 4.4271-16.941 7.5367-17.773-9.0134z"/>
     </g>
     <g transform="matrix(.39653 0 0 .39653 267.42 525.27)">
      <path d="m-29.72 872.72-11.997-0.0824c0.02306-9.7779 0.99415-18.515 16.111-11.728z"/>
      <path d="m-29.334 872.92 5.7536-10.528c8.6013 4.6503 15.837 9.6429 2.7006 19.744z"/>
      <path d="m-29.387 872.95 5.3838 10.722c-8.7183 4.4271-16.941 7.5367-17.773-9.0134z"/>
     </g>
     <g transform="matrix(.39653 0 0 .39653 244.58 519.04)">
      <path d="m-29.72 872.72-11.997-0.0824c0.02306-9.7779 0.99415-18.515 16.111-11.728z"/>
      <path d="m-29.334 872.92 5.7536-10.528c8.6013 4.6503 15.837 9.6429 2.7006 19.744z"/>
      <path d="m-29.387 872.95 5.3838 10.722c-8.7183 4.4271-16.941 7.5367-17.773-9.0134z"/>
     </g>
     <g transform="matrix(.39653 0 0 .39653 217.19 538.05)">
      <path d="m-29.72 872.72-11.997-0.0824c0.02306-9.7779 0.99415-18.515 16.111-11.728z"/>
      <path d="m-29.334 872.92 5.7536-10.528c8.6013 4.6503 15.837 9.6429 2.7006 19.744z"/>
      <path d="m-29.387 872.95 5.3838 10.722c-8.7183 4.4271-16.941 7.5367-17.773-9.0134z"/>
     </g>
     <g transform="matrix(.39653 0 0 .39653 227.69 544.22)">
      <path d="m-29.72 872.72-11.997-0.0824c0.02306-9.7779 0.99415-18.515 16.111-11.728z"/>
      <path d="m-29.334 872.92 5.7536-10.528c8.6013 4.6503 15.837 9.6429 2.7006 19.744z"/>
      <path d="m-29.387 872.95 5.3838 10.722c-8.7183 4.4271-16.941 7.5367-17.773-9.0134z"/>
     </g>
     <g transform="matrix(-.39653 0 0 .39653 194.61 552.02)">
      <path d="m-29.72 872.72-11.997-0.0824c0.02306-9.7779 0.99415-18.515 16.111-11.728z"/>
      <path d="m-29.334 872.92 5.7536-10.528c8.6013 4.6503 15.837 9.6429 2.7006 19.744z"/>
      <path d="m-29.387 872.95 5.3838 10.722c-8.7183 4.4271-16.941 7.5367-17.773-9.0134z"/>
     </g>
     <g transform="matrix(.39653 0 0 .39653 193.32 563.24)">
      <path d="m-29.72 872.72-11.997-0.0824c0.02306-9.7779 0.99415-18.515 16.111-11.728z"/>
      <path d="m-29.334 872.92 5.7536-10.528c8.6013 4.6503 15.837 9.6429 2.7006 19.744z"/>
      <path d="m-29.387 872.95 5.3838 10.722c-8.7183 4.4271-16.941 7.5367-17.773-9.0134z"/>
     </g>
     <g transform="matrix(-.39653 0 0 .39653 183.02 545.59)">
      <path d="m-29.72 872.72-11.997-0.0824c0.02306-9.7779 0.99415-18.515 16.111-11.728z"/>
      <path d="m-29.334 872.92 5.7536-10.528c8.6013 4.6503 15.837 9.6429 2.7006 19.744z"/>
      <path d="m-29.387 872.95 5.3838 10.722c-8.7183 4.4271-16.941 7.5367-17.773-9.0134z"/>
     </g>
     <g transform="matrix(.39653 0 0 .39653 181.52 540.32)">
      <path d="m-29.72 872.72-11.997-0.0824c0.02306-9.7779 0.99415-18.515 16.111-11.728z"/>
      <path d="m-29.334 872.92 5.7536-10.528c8.6013 4.6503 15.837 9.6429 2.7006 19.744z"/>
      <path d="m-29.387 872.95 5.3838 10.722c-8.7183 4.4271-16.941 7.5367-17.773-9.0134z"/>
     </g>
     <g transform="matrix(.39653 0 0 .39653 206.33 531.82)">
      <path d="m-29.72 872.72-11.997-0.0824c0.02306-9.7779 0.99415-18.515 16.111-11.728z"/>
      <path d="m-29.334 872.92 5.7536-10.528c8.6013 4.6503 15.837 9.6429 2.7006 19.744z"/>
      <path d="m-29.387 872.95 5.3838 10.722c-8.7183 4.4271-16.941 7.5367-17.773-9.0134z"/>
     </g>
     <g transform="matrix(.39653 0 0 .39653 232.74 514.89)">
      <path d="m-29.72 872.72-11.997-0.0824c0.02306-9.7779 0.99415-18.515 16.111-11.728z"/>
      <path d="m-29.334 872.92 5.7536-10.528c8.6013 4.6503 15.837 9.6429 2.7006 19.744z"/>
      <path d="m-29.387 872.95 5.3838 10.722c-8.7183 4.4271-16.941 7.5367-17.773-9.0134z"/>
     </g>
     <g transform="matrix(.39653 0 0 .39653 200.63 512.12)">
      <path d="m-29.72 872.72-11.997-0.0824c0.02306-9.7779 0.99415-18.515 16.111-11.728z"/>
      <path d="m-29.334 872.92 5.7536-10.528c8.6013 4.6503 15.837 9.6429 2.7006 19.744z"/>
      <path d="m-29.387 872.95 5.3838 10.722c-8.7183 4.4271-16.941 7.5367-17.773-9.0134z"/>
     </g>
     <g transform="matrix(.39653 0 0 .39653 182.77 488.67)">
      <path d="m-29.72 872.72-11.997-0.0824c0.02306-9.7779 0.99415-18.515 16.111-11.728z"/>
      <path d="m-29.334 872.92 5.7536-10.528c8.6013 4.6503 15.837 9.6429 2.7006 19.744z"/>
      <path d="m-29.387 872.95 5.3838 10.722c-8.7183 4.4271-16.941 7.5367-17.773-9.0134z"/>
     </g>
     <g transform="matrix(-.39653 0 0 .39653 171.78 536.75)">
      <path d="m-29.72 872.72-11.997-0.0824c0.02306-9.7779 0.99415-18.515 16.111-11.728z"/>
      <path d="m-29.334 872.92 5.7536-10.528c8.6013 4.6503 15.837 9.6429 2.7006 19.744z"/>
      <path d="m-29.387 872.95 5.3838 10.722c-8.7183 4.4271-16.941 7.5367-17.773-9.0134z"/>
     </g>
     <g transform="matrix(-.39653 0 0 -.39653 146.72 1226.7)">
      <path d="m-29.72 872.72-11.997-0.0824c0.02306-9.7779 0.99415-18.515 16.111-11.728z"/>
      <path d="m-29.334 872.92 5.7536-10.528c8.6013 4.6503 15.837 9.6429 2.7006 19.744z"/>
      <path d="m-29.387 872.95 5.3838 10.722c-8.7183 4.4271-16.941 7.5367-17.773-9.0134z"/>
     </g>
     <g transform="matrix(.39653 0 0 .39653 167.69 545.73)">
      <path d="m-29.72 872.72-11.997-0.0824c0.02306-9.7779 0.99415-18.515 16.111-11.728z"/>
      <path d="m-29.334 872.92 5.7536-10.528c8.6013 4.6503 15.837 9.6429 2.7006 19.744z"/>
      <path d="m-29.387 872.95 5.3838 10.722c-8.7183 4.4271-16.941 7.5367-17.773-9.0134z"/>
     </g>
     <g transform="matrix(.39653 0 0 .39653 181.35 553.68)">
      <path d="m-29.72 872.72-11.997-0.0824c0.02306-9.7779 0.99415-18.515 16.111-11.728z"/>
      <path d="m-29.334 872.92 5.7536-10.528c8.6013 4.6503 15.837 9.6429 2.7006 19.744z"/>
      <path d="m-29.387 872.95 5.3838 10.722c-8.7183 4.4271-16.941 7.5367-17.773-9.0134z"/>
     </g>
     <g transform="matrix(.39653 0 0 .39653 193.95 549.96)">
      <path d="m-29.72 872.72-11.997-0.0824c0.02306-9.7779 0.99415-18.515 16.111-11.728z"/>
      <path d="m-29.334 872.92 5.7536-10.528c8.6013 4.6503 15.837 9.6429 2.7006 19.744z"/>
      <path d="m-29.387 872.95 5.3838 10.722c-8.7183 4.4271-16.941 7.5367-17.773-9.0134z"/>
     </g>
     <g transform="matrix(.39653 0 0 .39653 156.95 564.38)">
      <path d="m-29.72 872.72-11.997-0.0824c0.02306-9.7779 0.99415-18.515 16.111-11.728z"/>
      <path d="m-29.334 872.92 5.7536-10.528c8.6013 4.6503 15.837 9.6429 2.7006 19.744z"/>
      <path d="m-29.387 872.95 5.3838 10.722c-8.7183 4.4271-16.941 7.5367-17.773-9.0134z"/>
     </g>
     <g transform="matrix(.39653 0 0 .39653 160.05 514.77)">
      <path d="m-29.72 872.72-11.997-0.0824c0.02306-9.7779 0.99415-18.515 16.111-11.728z"/>
      <path d="m-29.334 872.92 5.7536-10.528c8.6013 4.6503 15.837 9.6429 2.7006 19.744z"/>
      <path d="m-29.387 872.95 5.3838 10.722c-8.7183 4.4271-16.941 7.5367-17.773-9.0134z"/>
     </g>
     <g transform="matrix(.39653 0 0 -.39653 172.86 1189.4)">
      <path d="m-29.72 872.72-11.997-0.0824c0.02306-9.7779 0.99415-18.515 16.111-11.728z"/>
      <path d="m-29.334 872.92 5.7536-10.528c8.6013 4.6503 15.837 9.6429 2.7006 19.744z"/>
      <path d="m-29.387 872.95 5.3838 10.722c-8.7183 4.4271-16.941 7.5367-17.773-9.0134z"/>
     </g>
     <g transform="matrix(-.39653 0 0 .39653 131.69 538.82)">
      <path d="m-29.72 872.72-11.997-0.0824c0.02306-9.7779 0.99415-18.515 16.111-11.728z"/>
      <path d="m-29.334 872.92 5.7536-10.528c8.6013 4.6503 15.837 9.6429 2.7006 19.744z"/>
      <path d="m-29.387 872.95 5.3838 10.722c-8.7183 4.4271-16.941 7.5367-17.773-9.0134z"/>
     </g>
     <g transform="matrix(.39653 0 0 .39653 124.45 532.24)">
      <path d="m-29.72 872.72-11.997-0.0824c0.02306-9.7779 0.99415-18.515 16.111-11.728z"/>
      <path d="m-29.334 872.92 5.7536-10.528c8.6013 4.6503 15.837 9.6429 2.7006 19.744z"/>
      <path d="m-29.387 872.95 5.3838 10.722c-8.7183 4.4271-16.941 7.5367-17.773-9.0134z"/>
     </g>
     <g transform="matrix(.39653 0 0 .39653 134.63 540.36)">
      <path d="m-29.72 872.72-11.997-0.0824c0.02306-9.7779 0.99415-18.515 16.111-11.728z"/>
      <path d="m-29.334 872.92 5.7536-10.528c8.6013 4.6503 15.837 9.6429 2.7006 19.744z"/>
      <path d="m-29.387 872.95 5.3838 10.722c-8.7183 4.4271-16.941 7.5367-17.773-9.0134z"/>
     </g>
     <g transform="matrix(-.36039 .16538 .16538 .36039 -25.269 595.97)">
      <path d="m-29.72 872.72-11.997-0.0824c0.02306-9.7779 0.99415-18.515 16.111-11.728z"/>
      <path d="m-29.334 872.92 5.7536-10.528c8.6013 4.6503 15.837 9.6429 2.7006 19.744z"/>
      <path d="m-29.387 872.95 5.3838 10.722c-8.7183 4.4271-16.941 7.5367-17.773-9.0134z"/>
     </g>
     <g transform="matrix(.39653 0 0 .39653 143.06 571.59)">
      <path d="m-29.72 872.72-11.997-0.0824c0.02306-9.7779 0.99415-18.515 16.111-11.728z"/>
      <path d="m-29.334 872.92 5.7536-10.528c8.6013 4.6503 15.837 9.6429 2.7006 19.744z"/>
      <path d="m-29.387 872.95 5.3838 10.722c-8.7183 4.4271-16.941 7.5367-17.773-9.0134z"/>
     </g>
     <g transform="matrix(.39653 0 0 .39653 130.72 570.46)">
      <path d="m-29.72 872.72-11.997-0.0824c0.02306-9.7779 0.99415-18.515 16.111-11.728z"/>
      <path d="m-29.334 872.92 5.7536-10.528c8.6013 4.6503 15.837 9.6429 2.7006 19.744z"/>
      <path d="m-29.387 872.95 5.3838 10.722c-8.7183 4.4271-16.941 7.5367-17.773-9.0134z"/>
     </g>
     <g transform="matrix(-.39653 0 0 .39653 108.33 553.76)">
      <path d="m-29.72 872.72-11.997-0.0824c0.02306-9.7779 0.99415-18.515 16.111-11.728z"/>
      <path d="m-29.334 872.92 5.7536-10.528c8.6013 4.6503 15.837 9.6429 2.7006 19.744z"/>
      <path d="m-29.387 872.95 5.3838 10.722c-8.7183 4.4271-16.941 7.5367-17.773-9.0134z"/>
     </g>
     <g transform="matrix(.39653 0 0 .39653 105.87 561.44)">
      <path d="m-29.72 872.72-11.997-0.0824c0.02306-9.7779 0.99415-18.515 16.111-11.728z"/>
      <path d="m-29.334 872.92 5.7536-10.528c8.6013 4.6503 15.837 9.6429 2.7006 19.744z"/>
      <path d="m-29.387 872.95 5.3838 10.722c-8.7183 4.4271-16.941 7.5367-17.773-9.0134z"/>
     </g>
     <g transform="matrix(.31423 -.24185 .24185 .31423 -120.03 622.58)">
      <path d="m-29.72 872.72-11.997-0.0824c0.02306-9.7779 0.99415-18.515 16.111-11.728z"/>
      <path d="m-29.334 872.92 5.7536-10.528c8.6013 4.6503 15.837 9.6429 2.7006 19.744z"/>
      <path d="m-29.387 872.95 5.3838 10.722c-8.7183 4.4271-16.941 7.5367-17.773-9.0134z"/>
     </g>
     <g transform="matrix(.29253 .26769 -.26769 .29253 327.7 645.28)">
      <path d="m-29.72 872.72-11.997-0.0824c0.02306-9.7779 0.99415-18.515 16.111-11.728z"/>
      <path d="m-29.334 872.92 5.7536-10.528c8.6013 4.6503 15.837 9.6429 2.7006 19.744z"/>
      <path d="m-29.387 872.95 5.3838 10.722c-8.7183 4.4271-16.941 7.5367-17.773-9.0134z"/>
     </g>
     <g transform="matrix(.39653 0 0 .39653 108.9 547.83)">
      <path d="m-29.72 872.72-11.997-0.0824c0.02306-9.7779 0.99415-18.515 16.111-11.728z"/>
      <path d="m-29.334 872.92 5.7536-10.528c8.6013 4.6503 15.837 9.6429 2.7006 19.744z"/>
      <path d="m-29.387 872.95 5.3838 10.722c-8.7183 4.4271-16.941 7.5367-17.773-9.0134z"/>
     </g>
     <g transform="matrix(.39653 0 0 .39653 122.69 544.33)">
      <path d="m-29.72 872.72-11.997-0.0824c0.02306-9.7779 0.99415-18.515 16.111-11.728z"/>
      <path d="m-29.334 872.92 5.7536-10.528c8.6013 4.6503 15.837 9.6429 2.7006 19.744z"/>
      <path d="m-29.387 872.95 5.3838 10.722c-8.7183 4.4271-16.941 7.5367-17.773-9.0134z"/>
     </g>
     <g transform="matrix(.39653 0 0 .39653 113 535.44)">
      <path d="m-29.72 872.72-11.997-0.0824c0.02306-9.7779 0.99415-18.515 16.111-11.728z"/>
      <path d="m-29.334 872.92 5.7536-10.528c8.6013 4.6503 15.837 9.6429 2.7006 19.744z"/>
      <path d="m-29.387 872.95 5.3838 10.722c-8.7183 4.4271-16.941 7.5367-17.773-9.0134z"/>
     </g>
     <g transform="matrix(.39653 0 0 .39653 118.42 557.23)">
      <path d="m-29.72 872.72-11.997-0.0824c0.02306-9.7779 0.99415-18.515 16.111-11.728z"/>
      <path d="m-29.334 872.92 5.7536-10.528c8.6013 4.6503 15.837 9.6429 2.7006 19.744z"/>
      <path d="m-29.387 872.95 5.3838 10.722c-8.7183 4.4271-16.941 7.5367-17.773-9.0134z"/>
     </g>
     <g transform="matrix(.39653 0 0 .39653 90.032 535.7)">
      <path d="m-29.72 872.72-11.997-0.0824c0.02306-9.7779 0.99415-18.515 16.111-11.728z"/>
      <path d="m-29.334 872.92 5.7536-10.528c8.6013 4.6503 15.837 9.6429 2.7006 19.744z"/>
      <path d="m-29.387 872.95 5.3838 10.722c-8.7183 4.4271-16.941 7.5367-17.773-9.0134z"/>
     </g>
     <g transform="matrix(.28982 -.27062 .27062 .28982 -137.15 617.91)">
      <path d="m-29.72 872.72-11.997-0.0824c0.02306-9.7779 0.99415-18.515 16.111-11.728z"/>
      <path d="m-29.334 872.92 5.7536-10.528c8.6013 4.6503 15.837 9.6429 2.7006 19.744z"/>
      <path d="m-29.387 872.95 5.3838 10.722c-8.7183 4.4271-16.941 7.5367-17.773-9.0134z"/>
     </g>
     <g transform="matrix(.32378 .22891 -.22891 .32378 341.16 618.02)">
      <path d="m-29.72 872.72-11.997-0.0824c0.02306-9.7779 0.99415-18.515 16.111-11.728z"/>
      <path d="m-29.334 872.92 5.7536-10.528c8.6013 4.6503 15.837 9.6429 2.7006 19.744z"/>
      <path d="m-29.387 872.95 5.3838 10.722c-8.7183 4.4271-16.941 7.5367-17.773-9.0134z"/>
     </g>
     <g transform="matrix(.39653 0 0 .39653 155.86 551.85)">
      <path d="m-29.72 872.72-11.997-0.0824c0.02306-9.7779 0.99415-18.515 16.111-11.728z"/>
      <path d="m-29.334 872.92 5.7536-10.528c8.6013 4.6503 15.837 9.6429 2.7006 19.744z"/>
      <path d="m-29.387 872.95 5.3838 10.722c-8.7183 4.4271-16.941 7.5367-17.773-9.0134z"/>
     </g>
     <g transform="matrix(.39653 0 0 .39653 204.31 557.48)">
      <path d="m-29.72 872.72-11.997-0.0824c0.02306-9.7779 0.99415-18.515 16.111-11.728z"/>
      <path d="m-29.334 872.92 5.7536-10.528c8.6013 4.6503 15.837 9.6429 2.7006 19.744z"/>
      <path d="m-29.387 872.95 5.3838 10.722c-8.7183 4.4271-16.941 7.5367-17.773-9.0134z"/>
     </g>
     <g transform="matrix(-.39653 0 0 .39653 121.39 531.54)">
      <path d="m-29.72 872.72-11.997-0.0824c0.02306-9.7779 0.99415-18.515 16.111-11.728z"/>
      <path d="m-29.334 872.92 5.7536-10.528c8.6013 4.6503 15.837 9.6429 2.7006 19.744z"/>
      <path d="m-29.387 872.95 5.3838 10.722c-8.7183 4.4271-16.941 7.5367-17.773-9.0134z"/>
     </g>
     <g transform="matrix(.39653 0 0 .39653 159.53 526.4)">
      <path d="m-29.72 872.72-11.997-0.0824c0.02306-9.7779 0.99415-18.515 16.111-11.728z"/>
      <path d="m-29.334 872.92 5.7536-10.528c8.6013 4.6503 15.837 9.6429 2.7006 19.744z"/>
      <path d="m-29.387 872.95 5.3838 10.722c-8.7183 4.4271-16.941 7.5367-17.773-9.0134z"/>
     </g>
     <g transform="matrix(.39653 0 0 .39653 133.34 524.69)">
      <path d="m-29.72 872.72-11.997-0.0824c0.02306-9.7779 0.99415-18.515 16.111-11.728z"/>
      <path d="m-29.334 872.92 5.7536-10.528c8.6013 4.6503 15.837 9.6429 2.7006 19.744z"/>
      <path d="m-29.387 872.95 5.3838 10.722c-8.7183 4.4271-16.941 7.5367-17.773-9.0134z"/>
     </g>
     <g transform="matrix(.39653 0 0 .39653 146.56 518.57)">
      <path d="m-29.72 872.72-11.997-0.0824c0.02306-9.7779 0.99415-18.515 16.111-11.728z"/>
      <path d="m-29.334 872.92 5.7536-10.528c8.6013 4.6503 15.837 9.6429 2.7006 19.744z"/>
      <path d="m-29.387 872.95 5.3838 10.722c-8.7183 4.4271-16.941 7.5367-17.773-9.0134z"/>
     </g>
     <g transform="matrix(-.39653 0 0 .39653 92.513 523.22)">
      <path d="m-29.72 872.72-11.997-0.0824c0.02306-9.7779 0.99415-18.515 16.111-11.728z"/>
      <path d="m-29.334 872.92 5.7536-10.528c8.6013 4.6503 15.837 9.6429 2.7006 19.744z"/>
      <path d="m-29.387 872.95 5.3838 10.722c-8.7183 4.4271-16.941 7.5367-17.773-9.0134z"/>
     </g>
     <g transform="matrix(.39653 0 0 .39653 171.27 522.24)">
      <path d="m-29.72 872.72-11.997-0.0824c0.02306-9.7779 0.99415-18.515 16.111-11.728z"/>
      <path d="m-29.334 872.92 5.7536-10.528c8.6013 4.6503 15.837 9.6429 2.7006 19.744z"/>
      <path d="m-29.387 872.95 5.3838 10.722c-8.7183 4.4271-16.941 7.5367-17.773-9.0134z"/>
     </g>
     <g transform="matrix(-.39653 0 0 .39653 159.81 525.42)">
      <path d="m-29.72 872.72-11.997-0.0824c0.02306-9.7779 0.99415-18.515 16.111-11.728z"/>
      <path d="m-29.334 872.92 5.7536-10.528c8.6013 4.6503 15.837 9.6429 2.7006 19.744z"/>
      <path d="m-29.387 872.95 5.3838 10.722c-8.7183 4.4271-16.941 7.5367-17.773-9.0134z"/>
     </g>
     <g transform="matrix(.39653 0 0 .39653 174.94 510.25)">
      <path d="m-29.72 872.72-11.997-0.0824c0.02306-9.7779 0.99415-18.515 16.111-11.728z"/>
      <path d="m-29.334 872.92 5.7536-10.528c8.6013 4.6503 15.837 9.6429 2.7006 19.744z"/>
      <path d="m-29.387 872.95 5.3838 10.722c-8.7183 4.4271-16.941 7.5367-17.773-9.0134z"/>
     </g>
     <g transform="matrix(.39653 0 0 .39653 134.57 499.24)">
      <path d="m-29.72 872.72-11.997-0.0824c0.02306-9.7779 0.99415-18.515 16.111-11.728z"/>
      <path d="m-29.334 872.92 5.7536-10.528c8.6013 4.6503 15.837 9.6429 2.7006 19.744z"/>
      <path d="m-29.387 872.95 5.3838 10.722c-8.7183 4.4271-16.941 7.5367-17.773-9.0134z"/>
     </g>
     <g transform="matrix(.39653 0 0 .39653 148.03 492.88)">
      <path d="m-29.72 872.72-11.997-0.0824c0.02306-9.7779 0.99415-18.515 16.111-11.728z"/>
      <path d="m-29.334 872.92 5.7536-10.528c8.6013 4.6503 15.837 9.6429 2.7006 19.744z"/>
      <path d="m-29.387 872.95 5.3838 10.722c-8.7183 4.4271-16.941 7.5367-17.773-9.0134z"/>
     </g>
     <g transform="matrix(-.39653 0 0 .39653 149.04 481.62)">
      <path d="m-29.72 872.72-11.997-0.0824c0.02306-9.7779 0.99415-18.515 16.111-11.728z"/>
      <path d="m-29.334 872.92 5.7536-10.528c8.6013 4.6503 15.837 9.6429 2.7006 19.744z"/>
      <path d="m-29.387 872.95 5.3838 10.722c-8.7183 4.4271-16.941 7.5367-17.773-9.0134z"/>
     </g>
     <g transform="matrix(.39653 0 0 .39653 187.14 511.42)">
      <path d="m-29.72 872.72-11.997-0.0824c0.02306-9.7779 0.99415-18.515 16.111-11.728z"/>
      <path d="m-29.334 872.92 5.7536-10.528c8.6013 4.6503 15.837 9.6429 2.7006 19.744z"/>
      <path d="m-29.387 872.95 5.3838 10.722c-8.7183 4.4271-16.941 7.5367-17.773-9.0134z"/>
     </g>
     <g transform="matrix(.39653 0 0 .39653 195.1 524.23)">
      <path d="m-29.72 872.72-11.997-0.0824c0.02306-9.7779 0.99415-18.515 16.111-11.728z"/>
      <path d="m-29.334 872.92 5.7536-10.528c8.6013 4.6503 15.837 9.6429 2.7006 19.744z"/>
      <path d="m-29.387 872.95 5.3838 10.722c-8.7183 4.4271-16.941 7.5367-17.773-9.0134z"/>
     </g>
     <g transform="matrix(.39653 0 0 -.39653 195.79 1180.8)">
      <path d="m-29.72 872.72-11.997-0.0824c0.02306-9.7779 0.99415-18.515 16.111-11.728z"/>
      <path d="m-29.334 872.92 5.7536-10.528c8.6013 4.6503 15.837 9.6429 2.7006 19.744z"/>
      <path d="m-29.387 872.95 5.3838 10.722c-8.7183 4.4271-16.941 7.5367-17.773-9.0134z"/>
     </g>
     <g transform="matrix(-.39653 0 0 .39653 165.15 500.35)">
      <path d="m-29.72 872.72-11.997-0.0824c0.02306-9.7779 0.99415-18.515 16.111-11.728z"/>
      <path d="m-29.334 872.92 5.7536-10.528c8.6013 4.6503 15.837 9.6429 2.7006 19.744z"/>
      <path d="m-29.387 872.95 5.3838 10.722c-8.7183 4.4271-16.941 7.5367-17.773-9.0134z"/>
     </g>
     <g transform="matrix(.39653 0 0 .39653 199.94 500.35)">
      <path d="m-29.72 872.72-11.997-0.0824c0.02306-9.7779 0.99415-18.515 16.111-11.728z"/>
      <path d="m-29.334 872.92 5.7536-10.528c8.6013 4.6503 15.837 9.6429 2.7006 19.744z"/>
      <path d="m-29.387 872.95 5.3838 10.722c-8.7183 4.4271-16.941 7.5367-17.773-9.0134z"/>
     </g>
     <g transform="matrix(.39653 0 0 .39653 210.32 520.42)">
      <path d="m-29.72 872.72-11.997-0.0824c0.02306-9.7779 0.99415-18.515 16.111-11.728z"/>
      <path d="m-29.334 872.92 5.7536-10.528c8.6013 4.6503 15.837 9.6429 2.7006 19.744z"/>
      <path d="m-29.387 872.95 5.3838 10.722c-8.7183 4.4271-16.941 7.5367-17.773-9.0134z"/>
     </g>
     <g transform="matrix(.39653 0 0 .39653 221.05 526.65)">
      <path d="m-29.72 872.72-11.997-0.0824c0.02306-9.7779 0.99415-18.515 16.111-11.728z"/>
      <path d="m-29.334 872.92 5.7536-10.528c8.6013 4.6503 15.837 9.6429 2.7006 19.744z"/>
      <path d="m-29.387 872.95 5.3838 10.722c-8.7183 4.4271-16.941 7.5367-17.773-9.0134z"/>
     </g>
     <g transform="matrix(.39653 0 0 .39653 232.82 527)">
      <path d="m-29.72 872.72-11.997-0.0824c0.02306-9.7779 0.99415-18.515 16.111-11.728z"/>
      <path d="m-29.334 872.92 5.7536-10.528c8.6013 4.6503 15.837 9.6429 2.7006 19.744z"/>
      <path d="m-29.387 872.95 5.3838 10.722c-8.7183 4.4271-16.941 7.5367-17.773-9.0134z"/>
     </g>
     <g transform="matrix(-.39653 0 0 .39653 197.68 512.81)">
      <path d="m-29.72 872.72-11.997-0.0824c0.02306-9.7779 0.99415-18.515 16.111-11.728z"/>
      <path d="m-29.334 872.92 5.7536-10.528c8.6013 4.6503 15.837 9.6429 2.7006 19.744z"/>
      <path d="m-29.387 872.95 5.3838 10.722c-8.7183 4.4271-16.941 7.5367-17.773-9.0134z"/>
     </g>
     <g transform="matrix(.39653 0 0 .39653 250.81 528.38)">
      <path d="m-29.72 872.72-11.997-0.0824c0.02306-9.7779 0.99415-18.515 16.111-11.728z"/>
      <path d="m-29.334 872.92 5.7536-10.528c8.6013 4.6503 15.837 9.6429 2.7006 19.744z"/>
      <path d="m-29.387 872.95 5.3838 10.722c-8.7183 4.4271-16.941 7.5367-17.773-9.0134z"/>
     </g>
     <g transform="matrix(-.39653 0 0 .39653 233.47 517.31)">
      <path d="m-29.72 872.72-11.997-0.0824c0.02306-9.7779 0.99415-18.515 16.111-11.728z"/>
      <path d="m-29.334 872.92 5.7536-10.528c8.6013 4.6503 15.837 9.6429 2.7006 19.744z"/>
      <path d="m-29.387 872.95 5.3838 10.722c-8.7183 4.4271-16.941 7.5367-17.773-9.0134z"/>
     </g>
     <g transform="matrix(.39653 0 0 .39653 253.23 507.62)">
      <path d="m-29.72 872.72-11.997-0.0824c0.02306-9.7779 0.99415-18.515 16.111-11.728z"/>
      <path d="m-29.334 872.92 5.7536-10.528c8.6013 4.6503 15.837 9.6429 2.7006 19.744z"/>
      <path d="m-29.387 872.95 5.3838 10.722c-8.7183 4.4271-16.941 7.5367-17.773-9.0134z"/>
     </g>
     <g transform="matrix(.39653 0 0 .39653 241.47 505.89)">
      <path d="m-29.72 872.72-11.997-0.0824c0.02306-9.7779 0.99415-18.515 16.111-11.728z"/>
      <path d="m-29.334 872.92 5.7536-10.528c8.6013 4.6503 15.837 9.6429 2.7006 19.744z"/>
      <path d="m-29.387 872.95 5.3838 10.722c-8.7183 4.4271-16.941 7.5367-17.773-9.0134z"/>
     </g>
     <g transform="matrix(-.39653 0 0 .39653 207.71 502.08)">
      <path d="m-29.72 872.72-11.997-0.0824c0.02306-9.7779 0.99415-18.515 16.111-11.728z"/>
      <path d="m-29.334 872.92 5.7536-10.528c8.6013 4.6503 15.837 9.6429 2.7006 19.744z"/>
      <path d="m-29.387 872.95 5.3838 10.722c-8.7183 4.4271-16.941 7.5367-17.773-9.0134z"/>
     </g>
     <g transform="matrix(.39653 0 0 .39653 214.47 504.16)">
      <path d="m-29.72 872.72-11.997-0.0824c0.02306-9.7779 0.99415-18.515 16.111-11.728z"/>
      <path d="m-29.334 872.92 5.7536-10.528c8.6013 4.6503 15.837 9.6429 2.7006 19.744z"/>
      <path d="m-29.387 872.95 5.3838 10.722c-8.7183 4.4271-16.941 7.5367-17.773-9.0134z"/>
     </g>
     <g transform="matrix(-.39653 0 0 .39653 200.45 492.39)">
      <path d="m-29.72 872.72-11.997-0.0824c0.02306-9.7779 0.99415-18.515 16.111-11.728z"/>
      <path d="m-29.334 872.92 5.7536-10.528c8.6013 4.6503 15.837 9.6429 2.7006 19.744z"/>
      <path d="m-29.387 872.95 5.3838 10.722c-8.7183 4.4271-16.941 7.5367-17.773-9.0134z"/>
     </g>
     <g transform="matrix(.39653 0 0 .39653 231.78 480.28)">
      <path d="m-29.72 872.72-11.997-0.0824c0.02306-9.7779 0.99415-18.515 16.111-11.728z"/>
      <path d="m-29.334 872.92 5.7536-10.528c8.6013 4.6503 15.837 9.6429 2.7006 19.744z"/>
      <path d="m-29.387 872.95 5.3838 10.722c-8.7183 4.4271-16.941 7.5367-17.773-9.0134z"/>
     </g>
     <g transform="matrix(.39653 0 0 .39653 217.94 479.24)">
      <path d="m-29.72 872.72-11.997-0.0824c0.02306-9.7779 0.99415-18.515 16.111-11.728z"/>
      <path d="m-29.334 872.92 5.7536-10.528c8.6013 4.6503 15.837 9.6429 2.7006 19.744z"/>
      <path d="m-29.387 872.95 5.3838 10.722c-8.7183 4.4271-16.941 7.5367-17.773-9.0134z"/>
     </g>
    </g>
   </g>
  </g>
 </g>
</svg>
